<?xml version="1.0" encoding="utf-8"?>
<!-- Generator: Adobe Illustrator 16.0.0, SVG Export Plug-In . SVG Version: 6.00 Build 0)  -->
<!DOCTYPE svg PUBLIC "-//W3C//DTD SVG 1.1//EN" "http://www.w3.org/Graphics/SVG/1.1/DTD/svg11.dtd">
<svg version="1.1" id="Water_1_" xmlns="http://www.w3.org/2000/svg" xmlns:xlink="http://www.w3.org/1999/xlink" x="0px" y="0px"
	 width="3420px" height="2275px" viewBox="0 0 3420 2275" enable-background="new 0 0 3420 2275" xml:space="preserve">
<g id="US_Pacific_1_">
	<g id="Hawaiian_Preserve_xA0_Image_1_">
		<g>
			<g>
				<path fill="#FFFFFF" d="M108,919c0-84,0-168,0-252c80.333,0,160.667,0,241,0c0,84,0,168,0,252C268.667,919,188.333,919,108,919z
					 M219.889,915.005c24.837,0.122,45.935-5.781,65.944-16.101c3.116-1.607,4.692-3.285,4.276-7.32
					c-0.278-2.697,1.101-6.29,2.979-8.348c5.718-6.263,11.902-12.126,18.205-17.813c1.965-1.773,4.804-3.251,7.383-3.521
					c4.333-0.453,7.145-2.457,9.139-6c7.58-13.464,12.788-27.805,15.673-42.98c0.67-3.521,0.087-6.161-4.245-6.97
					c-1.245-0.231-2.762-2.302-2.957-3.696c-0.129-0.919,1.728-2.797,2.967-3.088c2.762-0.649,5.258-1.033,5.443-4.61
					c0.188-3.631-1.861-4.893-5.047-5.574c-0.924-0.198-2.058-1.851-2.127-2.899c-0.064-0.985,0.957-2.707,1.839-2.971
					c3.306-0.987,4.712-2.908,4.165-6.281c-0.583-3.591-3.463-3.291-6.069-3.882c-1.286-0.291-3.016-1.811-3.184-2.971
					c-0.172-1.192,1.036-3.42,2.126-3.802c3.081-1.077,4.268-3.224,2.956-5.676c-0.822-1.536-3.455-2.126-5.306-3.08
					c-1.458-0.752-4.063-1.245-4.2-2.149c-0.231-1.53,0.626-4.106,1.844-4.795c2.698-1.525,3.126-3.128,1.844-5.642
					c-1.206-2.364-2.688-3.361-5.628-2.464c-1.376,0.42-4.122-0.518-4.754-1.664c-0.626-1.134,0.075-3.955,1.17-4.889
					c2.478-2.111,2.792-3.947,0.802-6.327c-5.861-7.012-11.386-14.347-17.683-20.942c-17.278-18.099-40.876-25.009-62.984-34.319
					c-9.938-4.187-20.972-3.872-31.598-2.797c-15.343,1.552-29.068,6.938-39.409,19.135c-3.422,4.035-6.9,8.085-10.796,11.642
					c-5.155,4.705-11.019,8.642-16.105,13.412c-32.989,30.942-43.047,68.12-29.48,111.359c5.241,16.703,13.508,31.823,25.354,44.901
					c1.158,1.278,2.056,4.868,1.479,5.313c-4.864,3.749-1.313,5.961,1.246,8.192C167.191,904.597,192.482,915.399,219.889,915.005z"
					/>
				<path fill-rule="evenodd" clip-rule="evenodd" d="M219.889,915.005c-27.407,0.395-52.698-10.408-74.736-29.616
					c-2.56-2.231-6.11-4.443-1.246-8.192c0.578-0.445-0.321-4.035-1.479-5.313c-11.846-13.078-20.113-28.198-25.354-44.901
					c-13.567-43.239-3.509-80.417,29.48-111.359c5.086-4.771,10.95-8.707,16.105-13.412c3.896-3.557,7.375-7.606,10.796-11.642
					c10.34-12.196,24.065-17.583,39.409-19.135c10.626-1.075,21.66-1.39,31.598,2.797c22.107,9.311,45.706,16.221,62.984,34.319
					c6.297,6.596,11.822,13.931,17.683,20.942c1.99,2.38,1.676,4.216-0.802,6.327c-1.096,0.934-1.796,3.755-1.17,4.889
					c0.632,1.146,3.377,2.084,4.754,1.664c2.94-0.897,4.422,0.1,5.628,2.464c1.282,2.514,0.854,4.116-1.844,5.642
					c-1.218,0.688-2.075,3.265-1.844,4.795c0.137,0.904,2.743,1.397,4.2,2.149c1.851,0.954,4.484,1.544,5.306,3.08
					c1.312,2.452,0.125,4.599-2.956,5.676c-1.091,0.382-2.299,2.609-2.126,3.802c0.168,1.16,1.898,2.68,3.184,2.971
					c2.606,0.591,5.486,0.291,6.069,3.882c0.547,3.373-0.859,5.294-4.165,6.281c-0.882,0.264-1.903,1.985-1.839,2.971
					c0.069,1.049,1.203,2.701,2.127,2.899c3.186,0.682,5.235,1.943,5.047,5.574c-0.185,3.577-2.681,3.961-5.443,4.61
					c-1.24,0.291-3.096,2.169-2.967,3.088c0.195,1.395,1.712,3.465,2.957,3.696c4.332,0.809,4.915,3.448,4.245,6.97
					c-2.885,15.176-8.093,29.517-15.673,42.98c-1.995,3.543-4.807,5.547-9.139,6c-2.579,0.27-5.418,1.747-7.383,3.521
					c-6.303,5.688-12.487,11.551-18.205,17.813c-1.879,2.058-3.258,5.65-2.979,8.348c0.416,4.035-1.161,5.713-4.276,7.32
					C265.824,909.224,244.727,915.127,219.889,915.005z"/>
			</g>
		</g>
	</g>
	<g id="Poseidon_xA0_Image_1_">
		<g>
			<g>
				<path fill="#FFFFFF" d="M99,636c0-84,0-168,0-252c80.333,0,160.667,0,241,0c0,84,0,168,0,252C259.667,636,179.333,636,99,636z
					 M210.889,632.005c24.837,0.122,45.935-5.781,65.944-16.101c3.116-1.607,4.692-3.285,4.276-7.32
					c-0.278-2.697,1.101-6.29,2.979-8.348c5.718-6.263,11.902-12.126,18.205-17.813c1.965-1.773,4.804-3.251,7.383-3.521
					c4.333-0.453,7.145-2.457,9.139-6c7.58-13.464,12.788-27.805,15.673-42.98c0.67-3.521,0.087-6.161-4.245-6.97
					c-1.245-0.231-2.762-2.302-2.957-3.696c-0.129-0.919,1.728-2.797,2.967-3.088c2.762-0.649,5.258-1.033,5.443-4.61
					c0.188-3.631-1.861-4.893-5.047-5.574c-0.924-0.198-2.058-1.851-2.127-2.899c-0.064-0.985,0.957-2.707,1.839-2.971
					c3.306-0.987,4.712-2.908,4.165-6.281c-0.583-3.591-3.463-3.291-6.069-3.882c-1.286-0.291-3.016-1.811-3.184-2.971
					c-0.172-1.192,1.036-3.42,2.126-3.802c3.081-1.077,4.268-3.224,2.956-5.676c-0.822-1.536-3.455-2.126-5.306-3.08
					c-1.458-0.752-4.063-1.245-4.2-2.149c-0.231-1.53,0.626-4.106,1.844-4.795c2.698-1.525,3.126-3.128,1.844-5.642
					c-1.206-2.364-2.688-3.361-5.628-2.464c-1.376,0.42-4.122-0.518-4.754-1.664c-0.626-1.134,0.075-3.955,1.17-4.889
					c2.478-2.111,2.792-3.947,0.802-6.327c-5.861-7.012-11.386-14.347-17.683-20.942c-17.278-18.099-40.876-25.009-62.984-34.319
					c-9.938-4.187-20.972-3.872-31.598-2.797c-15.343,1.552-29.068,6.938-39.409,19.135c-3.422,4.035-6.9,8.085-10.796,11.642
					c-5.155,4.705-11.019,8.642-16.105,13.412c-32.989,30.942-43.047,68.12-29.48,111.359c5.241,16.703,13.508,31.823,25.354,44.901
					c1.158,1.278,2.056,4.868,1.479,5.313c-4.864,3.749-1.313,5.961,1.246,8.192C158.191,621.597,183.482,632.399,210.889,632.005z"
					/>
				<path fill-rule="evenodd" clip-rule="evenodd" d="M210.889,632.005c-27.407,0.395-52.698-10.408-74.736-29.616
					c-2.56-2.231-6.11-4.443-1.246-8.192c0.578-0.445-0.321-4.035-1.479-5.313c-11.846-13.078-20.113-28.198-25.354-44.901
					c-13.567-43.239-3.509-80.417,29.48-111.359c5.086-4.771,10.95-8.707,16.105-13.412c3.896-3.557,7.375-7.606,10.796-11.642
					c10.34-12.196,24.065-17.583,39.409-19.135c10.626-1.075,21.66-1.39,31.598,2.797c22.107,9.311,45.706,16.221,62.984,34.319
					c6.297,6.596,11.822,13.931,17.683,20.942c1.99,2.38,1.676,4.216-0.802,6.327c-1.096,0.934-1.796,3.755-1.17,4.889
					c0.632,1.146,3.377,2.084,4.754,1.664c2.94-0.897,4.422,0.1,5.628,2.464c1.282,2.514,0.854,4.116-1.844,5.642
					c-1.218,0.688-2.075,3.265-1.844,4.795c0.137,0.904,2.743,1.397,4.2,2.149c1.851,0.954,4.484,1.544,5.306,3.08
					c1.312,2.452,0.125,4.599-2.956,5.676c-1.091,0.382-2.299,2.609-2.126,3.802c0.168,1.16,1.898,2.68,3.184,2.971
					c2.606,0.591,5.486,0.291,6.069,3.882c0.547,3.373-0.859,5.294-4.165,6.281c-0.882,0.264-1.903,1.985-1.839,2.971
					c0.069,1.049,1.203,2.701,2.127,2.899c3.186,0.682,5.235,1.943,5.047,5.574c-0.185,3.577-2.681,3.961-5.443,4.61
					c-1.24,0.291-3.096,2.169-2.967,3.088c0.195,1.395,1.712,3.465,2.957,3.696c4.332,0.809,4.915,3.448,4.245,6.97
					c-2.885,15.176-8.093,29.517-15.673,42.98c-1.995,3.543-4.807,5.547-9.139,6c-2.579,0.27-5.418,1.747-7.383,3.521
					c-6.303,5.688-12.487,11.551-18.205,17.813c-1.879,2.058-3.258,5.65-2.979,8.348c0.416,4.035-1.161,5.713-4.276,7.32
					C256.824,626.224,235.727,632.127,210.889,632.005z"/>
			</g>
		</g>
	</g>
	<g id="New_Atlantis_xA0_Image_1_">
		<g>
			<g>
				<path d="M294,939c9,0,18,0,27,0c2.3,0.801,4.542,1.958,6.91,2.346c17.293,2.832,33.24,9.083,47.813,18.747
					c6.41,4.251,12.555,8.902,19.093,13.566c-3.463,3.98-6.259,6.791-2.444,10.841c8.175,8.678,16.072,17.618,24.271,26.271
					c16.317,17.22,21.219,37.917,18.484,60.807c-1.764,14.766-9.112,26.764-19.693,36.985c-2.481,2.396-4.992,4.996-6.651,7.97
					c-8,14.333-19.115,26.075-32.16,35.475c-19.372,13.957-41.537,21.182-65.478,22.502c-2.715,0.149-4.19,0.954-4.761,3.905
					c-0.286,1.478-2.285,3.849-3.316,3.753c-5.582-0.522-11.138-1.535-16.619-2.757c-1.223-0.272-2.18-2.004-3.128-3.171
					c-1.043-1.283-1.937-2.689-2.896-4.043c-1.136,1.053-2.762,1.897-3.315,3.197c-1.555,3.651-3.966,1.568-5.846,0.952
					c-1.919-0.628-4.85-0.63-4.079-4.388c0.307-1.497-0.933-3.312-1.469-4.981c-1.419,1.106-2.721,2.438-4.291,3.252
					c-1.427,0.739-3.344,1.601-4.699,1.208c-3.892-1.125-7.223-2.924-4.176-8.058c0.466-0.785-0.69-2.533-1.096-3.835
					c-1.296,0.438-2.904,0.544-3.813,1.396c-1.26,1.18-1.995,2.92-3.106,4.657c-4.082-2.95-9.59-4.197-7.704-10.962
					c0.293-1.052-0.517-2.612-1.198-3.7c-2.65-4.231-5.251-8.52-8.249-12.502c-4.243-5.638-8.8-10.765-17.076-10.012
					c-4.298,0.39-5.75-3.003-6.521-6.701c0.732-0.506,1.374-0.789,1.793-1.268c1.467-1.669,2.857-3.406,4.276-5.117
					c-2.075-0.195-4.182-0.229-6.215-0.636c-1.656-0.331-3.726-0.668-4.712-1.792c-1.552-1.77-2.348-4.202-3.651-6.716
					c2.317-1.063,4.283-1.63,5.813-2.778c1.132-0.851,1.697-2.458,2.515-3.728c-1.54-0.567-3.065-1.536-4.623-1.59
					c-1.553-0.054-3.138,0.809-5.265,1.432c-0.988-3.155-1.886-6.022-2.901-9.262c2.528-0.545,4.477-0.584,5.995-1.411
					c1.224-0.667,1.928-2.287,2.862-3.484c-1.28-0.787-2.484-1.798-3.871-2.274c-0.821-0.281-1.927,0.331-2.916,0.456
					c-2.326,0.297-4.761,0.275-4.348-2.971c0.336-2.646-2.207-6.64,3.207-7.418c1.724-0.249,3.245-1.914,4.858-2.931
					c-1.497-1.073-2.947-2.973-4.499-3.059c-4.231-0.234-5.182-2.229-5.213-6.083c-0.034-4.184,2.063-4.848,5.521-5.227
					c1.506-0.166,2.815-2.132,4.214-3.28c-1.355-0.947-2.663-2.597-4.077-2.693c-2.925-0.2-4.396-1.461-4.509-4.175
					c-0.102-2.427-0.296-5.025,0.408-7.28c3.47-11.104,6.902-22.239,11.018-33.11c2.012-5.315,4.807-10.648,8.448-14.959
					c5.665-6.709,12.465-12.444,18.586-18.784c14.196-14.703,32.167-22.54,51.228-28.383C283.083,941.561,288.574,940.387,294,939z"
					/>
				<path fill-rule="evenodd" clip-rule="evenodd" fill="#FFFFFF" d="M294,939c-5.426,1.387-10.917,2.561-16.265,4.2
					c-19.062,5.843-37.032,13.68-51.228,28.383c-6.121,6.34-12.921,12.075-18.586,18.784c-3.641,4.311-6.437,9.644-8.448,14.959
					c-4.116,10.871-7.548,22.007-11.018,33.11c-0.705,2.255-0.51,4.854-0.408,7.28c0.113,2.714,1.584,3.975,4.509,4.175
					c1.414,0.097,2.721,1.746,4.077,2.693c-1.399,1.148-2.708,3.114-4.214,3.28c-3.458,0.379-5.555,1.043-5.521,5.227
					c0.031,3.854,0.981,5.849,5.213,6.083c1.551,0.086,3.002,1.985,4.499,3.059c-1.613,1.017-3.134,2.682-4.858,2.931
					c-5.413,0.778-2.871,4.771-3.207,7.418c-0.413,3.246,2.022,3.268,4.348,2.971c0.989-0.125,2.094-0.737,2.916-0.456
					c1.387,0.477,2.591,1.487,3.871,2.274c-0.935,1.197-1.639,2.817-2.862,3.484c-1.519,0.827-3.467,0.866-5.995,1.411
					c1.015,3.239,1.913,6.106,2.901,9.262c2.126-0.623,3.711-1.485,5.265-1.432c1.558,0.054,3.083,1.022,4.623,1.59
					c-0.817,1.27-1.382,2.877-2.515,3.728c-1.53,1.148-3.496,1.715-5.813,2.778c1.304,2.514,2.099,4.946,3.651,6.716
					c0.986,1.124,3.056,1.461,4.712,1.792c2.033,0.407,4.14,0.44,6.215,0.636c-1.419,1.711-2.81,3.448-4.276,5.117
					c-0.42,0.479-1.062,0.762-1.793,1.268c0.771,3.698,2.223,7.091,6.521,6.701c8.276-0.753,12.833,4.374,17.076,10.012
					c2.997,3.982,5.598,8.271,8.249,12.502c0.681,1.088,1.491,2.648,1.198,3.7c-1.886,6.765,3.622,8.012,7.704,10.962
					c1.111-1.737,1.846-3.478,3.106-4.657c0.909-0.852,2.517-0.958,3.813-1.396c0.406,1.302,1.562,3.05,1.096,3.835
					c-3.046,5.134,0.285,6.933,4.176,8.058c1.354,0.393,3.272-0.469,4.699-1.208c1.57-0.813,2.872-2.146,4.291-3.252
					c0.536,1.67,1.776,3.484,1.469,4.981c-0.771,3.758,2.16,3.76,4.079,4.388c1.88,0.616,4.291,2.699,5.846-0.952
					c0.554-1.3,2.179-2.145,3.315-3.197c0.959,1.354,1.852,2.76,2.896,4.043c0.948,1.167,1.905,2.898,3.128,3.171
					c5.48,1.222,11.037,2.234,16.619,2.757c1.031,0.096,3.03-2.275,3.316-3.753c0.571-2.951,2.046-3.756,4.761-3.905
					c23.941-1.32,46.106-8.545,65.478-22.502c13.044-9.399,24.16-21.142,32.16-35.475c1.66-2.974,4.17-5.573,6.651-7.97
					c10.582-10.222,17.93-22.22,19.693-36.985c2.734-22.89-2.167-43.587-18.484-60.807c-8.2-8.653-16.097-17.594-24.271-26.271
					c-3.815-4.05-1.02-6.86,2.444-10.841c-6.539-4.664-12.683-9.315-19.093-13.566c-14.574-9.664-30.521-15.915-47.813-18.747
					c-2.368-0.388-4.61-1.545-6.91-2.346c39,0,78,0,117,0c0,81.667,0,163.333,0,245c-86.333,0-172.667,0-259,0
					c0-81.667,0-163.333,0-245C217.333,939,255.667,939,294,939z"/>
			</g>
		</g>
	</g>
</g>
<g id="North_Atlantic_1_">
	<g id="New_York_xA0_Image_1_">
		<g>
			<g>
				<path fill="#FFFFFF" d="M748,1001c0-84,0-168,0-252c80.333,0,160.667,0,241,0c0,84,0,168,0,252
					C908.667,1001,828.333,1001,748,1001z M859.889,997.005c24.837,0.122,45.935-5.781,65.944-16.101
					c3.116-1.607,4.692-3.285,4.276-7.32c-0.278-2.697,1.101-6.29,2.979-8.348c5.718-6.263,11.902-12.126,18.205-17.813
					c1.965-1.773,4.804-3.251,7.383-3.521c4.333-0.453,7.145-2.457,9.139-6c7.58-13.464,12.788-27.805,15.673-42.98
					c0.67-3.521,0.087-6.161-4.245-6.97c-1.245-0.231-2.762-2.302-2.957-3.696c-0.129-0.919,1.728-2.797,2.967-3.088
					c2.762-0.649,5.258-1.033,5.443-4.61c0.188-3.631-1.861-4.893-5.047-5.574c-0.924-0.198-2.058-1.851-2.127-2.899
					c-0.064-0.985,0.957-2.707,1.839-2.971c3.306-0.987,4.712-2.908,4.165-6.281c-0.583-3.591-3.463-3.291-6.069-3.882
					c-1.286-0.291-3.016-1.811-3.184-2.971c-0.172-1.192,1.036-3.42,2.126-3.802c3.081-1.077,4.268-3.224,2.956-5.676
					c-0.822-1.536-3.455-2.126-5.306-3.08c-1.458-0.752-4.063-1.245-4.2-2.149c-0.231-1.53,0.626-4.106,1.844-4.795
					c2.698-1.525,3.126-3.128,1.844-5.642c-1.206-2.364-2.688-3.361-5.628-2.464c-1.376,0.42-4.122-0.518-4.754-1.664
					c-0.626-1.134,0.075-3.955,1.17-4.889c2.478-2.111,2.792-3.947,0.802-6.327c-5.861-7.012-11.386-14.347-17.683-20.942
					c-17.278-18.099-40.876-25.009-62.984-34.319c-9.938-4.187-20.972-3.872-31.598-2.797c-15.343,1.552-29.068,6.938-39.409,19.135
					c-3.422,4.035-6.9,8.085-10.796,11.642c-5.155,4.705-11.019,8.642-16.105,13.412c-32.989,30.942-43.047,68.12-29.48,111.359
					c5.241,16.703,13.508,31.823,25.354,44.901c1.158,1.278,2.056,4.868,1.479,5.313c-4.864,3.749-1.313,5.961,1.246,8.192
					C807.191,986.597,832.482,997.399,859.889,997.005z"/>
				<path fill-rule="evenodd" clip-rule="evenodd" d="M859.889,997.005c-27.407,0.395-52.698-10.408-74.736-29.616
					c-2.56-2.231-6.11-4.443-1.246-8.192c0.578-0.445-0.321-4.035-1.479-5.313c-11.846-13.078-20.113-28.198-25.354-44.901
					c-13.567-43.239-3.509-80.417,29.48-111.359c5.086-4.771,10.95-8.707,16.105-13.412c3.896-3.557,7.375-7.606,10.796-11.642
					c10.34-12.196,24.065-17.583,39.409-19.135c10.626-1.075,21.66-1.39,31.598,2.797c22.107,9.311,45.706,16.221,62.984,34.319
					c6.297,6.596,11.822,13.931,17.683,20.942c1.99,2.38,1.676,4.216-0.802,6.327c-1.096,0.934-1.796,3.755-1.17,4.889
					c0.632,1.146,3.377,2.084,4.754,1.664c2.94-0.897,4.422,0.1,5.628,2.464c1.282,2.514,0.854,4.116-1.844,5.642
					c-1.218,0.688-2.075,3.265-1.844,4.795c0.137,0.904,2.743,1.397,4.2,2.149c1.851,0.954,4.484,1.544,5.306,3.08
					c1.312,2.452,0.125,4.599-2.956,5.676c-1.091,0.382-2.299,2.609-2.126,3.802c0.168,1.16,1.898,2.68,3.184,2.971
					c2.606,0.591,5.486,0.291,6.069,3.882c0.547,3.373-0.859,5.294-4.165,6.281c-0.882,0.264-1.903,1.985-1.839,2.971
					c0.069,1.049,1.203,2.701,2.127,2.899c3.186,0.682,5.235,1.943,5.047,5.574c-0.185,3.577-2.681,3.961-5.443,4.61
					c-1.24,0.291-3.096,2.169-2.967,3.088c0.195,1.395,1.712,3.465,2.957,3.696c4.332,0.809,4.915,3.448,4.245,6.97
					c-2.885,15.176-8.093,29.517-15.673,42.98c-1.995,3.543-4.807,5.547-9.139,6c-2.579,0.27-5.418,1.747-7.383,3.521
					c-6.303,5.688-12.487,11.551-18.205,17.813c-1.879,2.058-3.258,5.65-2.979,8.348c0.416,4.035-1.161,5.713-4.276,7.32
					C905.824,991.224,884.727,997.127,859.889,997.005z"/>
			</g>
		</g>
	</g>
	<g id="Nova_Brasilia_xA0_Image_1_">
		<g>
			<g>
				<path d="M969,1016c6,0,12,0,18,0c2.106,0.489,4.227,0.923,6.315,1.478c4.151,1.103,8.456,1.9,12.302,3.679
					c0.944,0.436,0.109,4.226,0.595,6.359c0.23,1.013,1.609,2.397,2.53,2.447c0.968,0.053,2.364-1.084,2.94-2.071
					c0.87-1.49,1.19-3.302,1.913-5.488c3.543,1.688,6.585,3.135,9.768,4.65c-0.666,1.517-1.333,2.395-1.393,3.312
					c-0.106,1.633,0.155,3.29,0.262,4.938c1.639-0.701,3.464-1.149,4.859-2.18c1.235-0.911,1.991-2.471,3.034-3.843
					c3.277,1.851,6.099,3.445,9.204,5.2c-0.863,1.133-1.718,1.822-1.983,2.692c-0.521,1.707-0.713,3.514-1.042,5.278
					c1.857-0.467,4.132-0.411,5.497-1.498c4.528-3.605,7.187-2.898,9.649,1.947c-0.798,3.408-1.335,5.698-1.872,7.988
					c2.189-0.501,4.357-1.153,6.574-1.449c1.432-0.19,3.256-0.355,4.337,0.344c2.181,1.411,3.976,3.421,5.01,4.353
					c-1.486,3.566-2.57,6.166-3.654,8.767c3.172-0.461,6.344-0.922,10.762-1.564c3.95,5.825,9.432,12.241,12.998,19.588
					c4.475,9.219,7.267,19.243,11.023,28.826c1.248,3.185,0.264,5.097-1.803,7.498c-2.038,2.366-4.328,5.448-4.487,8.328
					c-0.522,9.452-0.156,18.956-0.032,28.438c0.012,0.893,0.476,2.156,1.154,2.604c6.264,4.136,4.973,10.152,3.59,15.756
					c-3.406,13.794-10.1,25.828-19.482,36.637c-12.655,14.578-26.099,27.823-44.136,35.808c-15.929,7.051-32.006,12.93-49.75,12.78
					c-3.31-0.028-5.498-0.873-6.22-4.267c-0.626-2.942-2.575-3.446-5.379-3.951c-11.581-2.087-23.673-3.159-34.438-7.458
					c-12.023-4.802-23.06-12.312-34.035-19.402c-5.493-3.548-10.229-8.479-14.702-13.341c-5.037-5.477-8.814-12.188-14.166-17.283
					c-11.337-10.796-20.021-22.905-23.448-38.43c-0.786-3.559-2.18-6.983-3.294-10.471c0-3.333,0-6.667,0-10
					c0.484-1.524,1.175-3.018,1.421-4.58c2.231-14.159,8.401-26.46,17.604-37.3c8.702-10.25,17.464-20.45,26.323-30.564
					c2.062-2.353,2.316-4.28-0.051-6.367c-2.09-1.842-2.092-3.651,0.055-5.392c4.834-3.919,9.699-7.801,14.972-12.036
					c1.681,2.521,2.649,4.483,4.106,5.963c0.86,0.874,2.497,0.984,3.784,1.438c0.4-1.443,1.044-2.877,1.105-4.335
					c0.037-0.854-0.772-1.807-1.343-2.614c-3.656-5.168,1.569-5.444,3.966-7.343c2.93-2.322,4.548-1.453,6.069,1.751
					c0.587,1.236,2.66,1.768,4.055,2.62c0.463-1.582,1.733-3.497,1.242-4.685c-1.748-4.228,0.558-5.302,3.85-6.047
					c3.189-0.721,5.71-0.45,7.247,3.134c0.429,1,2.641,1.236,4.035,1.822c0.454-1.136,1.622-2.658,1.249-3.346
					c-3.076-5.681,1.196-6.071,4.755-6.669c3.426-0.575,6.94-0.597,10.395-1.029C963.576,1017.079,966.281,1016.483,969,1016z"/>
				<path fill-rule="evenodd" clip-rule="evenodd" fill="#FFFFFF" d="M846,1143c1.114,3.487,2.508,6.912,3.294,10.471
					c3.427,15.524,12.11,27.634,23.448,38.43c5.351,5.096,9.128,11.807,14.166,17.283c4.473,4.862,9.209,9.793,14.702,13.341
					c10.975,7.091,22.011,14.601,34.035,19.402c10.765,4.299,22.857,5.371,34.438,7.458c2.804,0.505,4.752,1.009,5.379,3.951
					c0.722,3.394,2.91,4.238,6.22,4.267c17.745,0.149,33.822-5.729,49.75-12.78c18.037-7.984,31.481-21.229,44.136-35.808
					c9.382-10.809,16.076-22.843,19.482-36.637c1.383-5.604,2.674-11.62-3.59-15.756c-0.679-0.448-1.143-1.712-1.154-2.604
					c-0.124-9.482-0.49-18.986,0.032-28.438c0.159-2.88,2.449-5.962,4.487-8.328c2.067-2.401,3.051-4.313,1.803-7.498
					c-3.756-9.583-6.548-19.607-11.023-28.826c-3.565-7.347-9.047-13.763-12.998-19.588c-4.418,0.643-7.59,1.104-10.762,1.564
					c1.083-2.601,2.167-5.2,3.654-8.767c-1.034-0.932-2.829-2.941-5.01-4.353c-1.081-0.699-2.905-0.534-4.337-0.344
					c-2.216,0.296-4.385,0.948-6.574,1.449c0.537-2.29,1.073-4.58,1.872-7.988c-2.462-4.846-5.121-5.553-9.649-1.947
					c-1.365,1.087-3.639,1.031-5.497,1.498c0.328-1.765,0.521-3.571,1.042-5.278c0.266-0.87,1.12-1.56,1.983-2.692
					c-3.104-1.755-5.927-3.35-9.204-5.2c-1.042,1.372-1.799,2.932-3.034,3.843c-1.396,1.03-3.221,1.479-4.859,2.18
					c-0.107-1.647-0.369-3.305-0.262-4.938c0.06-0.918,0.727-1.796,1.393-3.312c-3.183-1.516-6.225-2.963-9.768-4.65
					c-0.723,2.187-1.043,3.998-1.913,5.488c-0.576,0.987-1.972,2.124-2.94,2.071c-0.921-0.05-2.3-1.435-2.53-2.447
					c-0.486-2.134,0.349-5.924-0.595-6.359c-3.846-1.778-8.151-2.576-12.302-3.679c-2.089-0.555-4.209-0.988-6.315-1.478
					c37.333,0,74.667,0,112,0c0,81,0,162,0,243c-84.333,0-168.667,0-253,0C846,1220.333,846,1181.667,846,1143z"/>
				<path fill-rule="evenodd" clip-rule="evenodd" fill="#FFFFFF" d="M969,1016c-2.719,0.483-5.424,1.079-8.161,1.421
					c-3.455,0.433-6.969,0.454-10.395,1.029c-3.559,0.598-7.831,0.988-4.755,6.669c0.373,0.688-0.795,2.21-1.249,3.346
					c-1.394-0.586-3.606-0.822-4.035-1.822c-1.536-3.584-4.058-3.854-7.247-3.134c-3.292,0.745-5.598,1.819-3.85,6.047
					c0.491,1.188-0.779,3.103-1.242,4.685c-1.396-0.853-3.468-1.384-4.055-2.62c-1.521-3.204-3.139-4.073-6.069-1.751
					c-2.396,1.898-7.622,2.175-3.966,7.343c0.571,0.808,1.379,1.76,1.343,2.614c-0.062,1.458-0.706,2.892-1.105,4.335
					c-1.287-0.453-2.923-0.563-3.784-1.438c-1.457-1.479-2.425-3.441-4.106-5.963c-5.273,4.235-10.138,8.117-14.972,12.036
					c-2.147,1.74-2.146,3.55-0.055,5.392c2.368,2.087,2.113,4.015,0.051,6.367c-8.859,10.114-17.621,20.314-26.323,30.564
					c-9.203,10.84-15.373,23.141-17.604,37.3c-0.246,1.562-0.937,3.056-1.421,4.58c0-38.919,0-77.838,0-117
					C887,1016,928,1016,969,1016z"/>
			</g>
		</g>
	</g>
	<g id="Western_Ireland_xA0_Image_1_">
		<g>
			<g>
				<path d="M1101,631c9,0,18,0,27,0c2.3,0.801,4.542,1.958,6.91,2.346c17.293,2.832,33.24,9.083,47.813,18.747
					c6.41,4.251,12.555,8.902,19.093,13.566c-3.463,3.98-6.259,6.791-2.444,10.841c8.175,8.678,16.072,17.618,24.271,26.271
					c16.317,17.22,21.219,37.917,18.484,60.807c-1.764,14.766-9.112,26.764-19.693,36.985c-2.481,2.396-4.992,4.996-6.651,7.97
					c-8,14.333-19.115,26.075-32.16,35.475c-19.372,13.957-41.537,21.182-65.478,22.502c-2.715,0.149-4.19,0.954-4.761,3.905
					c-0.286,1.478-2.285,3.849-3.316,3.753c-5.582-0.522-11.138-1.535-16.619-2.757c-1.223-0.272-2.18-2.004-3.128-3.171
					c-1.043-1.283-1.937-2.689-2.896-4.043c-1.136,1.053-2.762,1.897-3.315,3.197c-1.555,3.651-3.966,1.568-5.846,0.952
					c-1.919-0.628-4.85-0.63-4.079-4.388c0.307-1.497-0.933-3.312-1.469-4.981c-1.419,1.106-2.721,2.438-4.291,3.252
					c-1.427,0.739-3.344,1.601-4.699,1.208c-3.892-1.125-7.223-2.924-4.176-8.058c0.466-0.785-0.69-2.533-1.096-3.835
					c-1.296,0.438-2.904,0.544-3.813,1.396c-1.26,1.18-1.995,2.92-3.106,4.657c-4.082-2.95-9.59-4.197-7.704-10.962
					c0.293-1.052-0.517-2.612-1.198-3.7c-2.65-4.231-5.251-8.52-8.249-12.502c-4.243-5.638-8.8-10.765-17.076-10.012
					c-4.298,0.39-5.75-3.003-6.521-6.701c0.732-0.506,1.374-0.789,1.793-1.268c1.467-1.669,2.857-3.406,4.276-5.117
					c-2.075-0.195-4.182-0.229-6.215-0.636c-1.656-0.331-3.726-0.668-4.712-1.792c-1.552-1.77-2.348-4.202-3.651-6.716
					c2.317-1.063,4.283-1.63,5.813-2.778c1.132-0.851,1.697-2.458,2.515-3.728c-1.54-0.567-3.065-1.536-4.623-1.59
					c-1.553-0.054-3.138,0.809-5.265,1.432c-0.988-3.155-1.886-6.022-2.901-9.262c2.528-0.545,4.477-0.584,5.995-1.411
					c1.224-0.667,1.928-2.287,2.862-3.484c-1.28-0.787-2.484-1.798-3.871-2.274c-0.821-0.281-1.927,0.331-2.916,0.456
					c-2.326,0.297-4.761,0.275-4.348-2.971c0.336-2.646-2.207-6.64,3.207-7.418c1.724-0.249,3.245-1.914,4.858-2.931
					c-1.497-1.073-2.947-2.973-4.499-3.059c-4.231-0.234-5.182-2.229-5.213-6.083c-0.034-4.184,2.063-4.848,5.521-5.227
					c1.506-0.166,2.815-2.132,4.214-3.28c-1.355-0.947-2.663-2.597-4.077-2.693c-2.925-0.2-4.396-1.461-4.509-4.175
					c-0.102-2.427-0.296-5.025,0.408-7.28c3.47-11.104,6.902-22.239,11.018-33.11c2.012-5.315,4.807-10.648,8.448-14.959
					c5.665-6.709,12.465-12.444,18.586-18.784c14.196-14.703,32.167-22.54,51.228-28.383
					C1090.083,633.561,1095.574,632.387,1101,631z"/>
				<path fill-rule="evenodd" clip-rule="evenodd" fill="#FFFFFF" d="M1101,631c-5.426,1.387-10.917,2.561-16.265,4.2
					c-19.062,5.843-37.032,13.68-51.228,28.383c-6.121,6.34-12.921,12.075-18.586,18.784c-3.641,4.311-6.437,9.644-8.448,14.959
					c-4.116,10.871-7.548,22.007-11.018,33.11c-0.705,2.255-0.51,4.854-0.408,7.28c0.113,2.714,1.584,3.975,4.509,4.175
					c1.414,0.097,2.721,1.746,4.077,2.693c-1.399,1.148-2.708,3.114-4.214,3.28c-3.458,0.379-5.555,1.043-5.521,5.227
					c0.031,3.854,0.981,5.849,5.213,6.083c1.551,0.086,3.002,1.985,4.499,3.059c-1.613,1.017-3.134,2.682-4.858,2.931
					c-5.413,0.778-2.871,4.771-3.207,7.418c-0.413,3.246,2.022,3.268,4.348,2.971c0.989-0.125,2.094-0.737,2.916-0.456
					c1.387,0.477,2.591,1.487,3.871,2.274c-0.935,1.197-1.639,2.817-2.862,3.484c-1.519,0.827-3.467,0.866-5.995,1.411
					c1.015,3.239,1.913,6.106,2.901,9.262c2.126-0.623,3.711-1.485,5.265-1.432c1.558,0.054,3.083,1.022,4.623,1.59
					c-0.817,1.27-1.382,2.877-2.515,3.728c-1.53,1.148-3.496,1.715-5.813,2.778c1.304,2.514,2.099,4.946,3.651,6.716
					c0.986,1.124,3.056,1.461,4.712,1.792c2.033,0.407,4.14,0.44,6.215,0.636c-1.419,1.711-2.81,3.448-4.276,5.117
					c-0.42,0.479-1.062,0.762-1.793,1.268c0.771,3.698,2.223,7.091,6.521,6.701c8.276-0.753,12.833,4.374,17.076,10.012
					c2.997,3.982,5.598,8.271,8.249,12.502c0.681,1.088,1.491,2.648,1.198,3.7c-1.886,6.765,3.622,8.012,7.704,10.962
					c1.111-1.737,1.846-3.478,3.106-4.657c0.909-0.852,2.517-0.958,3.813-1.396c0.406,1.302,1.562,3.05,1.096,3.835
					c-3.046,5.134,0.285,6.933,4.176,8.058c1.354,0.393,3.272-0.469,4.699-1.208c1.57-0.813,2.872-2.146,4.291-3.252
					c0.536,1.67,1.776,3.484,1.469,4.981c-0.771,3.758,2.16,3.76,4.079,4.388c1.88,0.616,4.291,2.699,5.846-0.952
					c0.554-1.3,2.179-2.145,3.315-3.197c0.959,1.354,1.852,2.76,2.896,4.043c0.948,1.167,1.905,2.898,3.128,3.171
					c5.48,1.222,11.037,2.234,16.619,2.757c1.031,0.096,3.03-2.275,3.316-3.753c0.571-2.951,2.046-3.756,4.761-3.905
					c23.941-1.32,46.106-8.545,65.478-22.502c13.044-9.399,24.16-21.142,32.16-35.475c1.66-2.974,4.17-5.573,6.651-7.97
					c10.582-10.222,17.93-22.22,19.693-36.985c2.734-22.89-2.167-43.587-18.484-60.807c-8.2-8.653-16.097-17.594-24.271-26.271
					c-3.815-4.05-1.02-6.86,2.444-10.841c-6.539-4.664-12.683-9.315-19.093-13.566c-14.574-9.664-30.521-15.915-47.813-18.747
					c-2.368-0.388-4.61-1.545-6.91-2.346c39,0,78,0,117,0c0,81.667,0,163.333,0,245c-86.333,0-172.667,0-259,0
					c0-81.667,0-163.333,0-245C1024.333,631,1062.667,631,1101,631z"/>
			</g>
		</g>
	</g>
</g>
<g id="South_Atlantic_1_">
	<g id="Neo_Paulo_xA0_Image_1_">
		<g>
			<g>
				<path d="M1060,1463c6,0,12,0,18,0c2.106,0.489,4.227,0.923,6.315,1.478c4.151,1.103,8.456,1.9,12.302,3.679
					c0.944,0.436,0.109,4.226,0.595,6.359c0.23,1.013,1.609,2.397,2.53,2.447c0.968,0.053,2.364-1.084,2.94-2.071
					c0.87-1.49,1.19-3.302,1.913-5.488c3.543,1.688,6.585,3.135,9.768,4.65c-0.666,1.517-1.333,2.395-1.393,3.312
					c-0.106,1.633,0.155,3.29,0.262,4.938c1.639-0.701,3.464-1.149,4.859-2.18c1.235-0.911,1.991-2.471,3.034-3.843
					c3.277,1.851,6.099,3.445,9.204,5.2c-0.863,1.133-1.718,1.822-1.983,2.692c-0.521,1.707-0.713,3.514-1.042,5.278
					c1.857-0.467,4.132-0.411,5.497-1.498c4.528-3.605,7.187-2.898,9.649,1.947c-0.798,3.408-1.335,5.698-1.872,7.988
					c2.189-0.501,4.357-1.153,6.574-1.449c1.432-0.19,3.256-0.355,4.337,0.344c2.181,1.411,3.976,3.421,5.01,4.353
					c-1.486,3.566-2.57,6.166-3.654,8.767c3.172-0.461,6.344-0.922,10.762-1.564c3.95,5.825,9.432,12.241,12.998,19.588
					c4.475,9.219,7.267,19.243,11.023,28.826c1.248,3.185,0.264,5.097-1.803,7.498c-2.038,2.366-4.328,5.448-4.487,8.328
					c-0.522,9.452-0.156,18.956-0.032,28.438c0.012,0.893,0.476,2.156,1.154,2.604c6.264,4.136,4.973,10.152,3.59,15.756
					c-3.406,13.794-10.1,25.828-19.482,36.637c-12.655,14.578-26.099,27.823-44.136,35.808c-15.929,7.051-32.006,12.93-49.75,12.78
					c-3.31-0.028-5.498-0.873-6.22-4.267c-0.626-2.942-2.575-3.446-5.379-3.951c-11.581-2.087-23.673-3.159-34.438-7.458
					c-12.023-4.802-23.06-12.312-34.035-19.402c-5.493-3.548-10.229-8.479-14.702-13.341c-5.037-5.477-8.814-12.188-14.166-17.283
					c-11.337-10.796-20.021-22.905-23.448-38.43c-0.786-3.559-2.18-6.983-3.294-10.471c0-3.333,0-6.667,0-10
					c0.484-1.524,1.175-3.018,1.421-4.58c2.231-14.159,8.401-26.46,17.604-37.3c8.702-10.25,17.464-20.45,26.323-30.564
					c2.062-2.353,2.316-4.28-0.051-6.367c-2.09-1.842-2.092-3.651,0.055-5.392c4.834-3.919,9.699-7.801,14.972-12.036
					c1.681,2.521,2.649,4.483,4.106,5.963c0.86,0.874,2.497,0.984,3.784,1.438c0.4-1.443,1.044-2.877,1.105-4.335
					c0.037-0.854-0.772-1.807-1.343-2.614c-3.656-5.168,1.569-5.444,3.966-7.343c2.93-2.322,4.548-1.453,6.069,1.751
					c0.587,1.236,2.66,1.768,4.055,2.62c0.463-1.582,1.733-3.497,1.242-4.685c-1.748-4.228,0.558-5.302,3.85-6.047
					c3.189-0.721,5.71-0.45,7.247,3.134c0.429,1,2.641,1.236,4.035,1.822c0.454-1.136,1.622-2.658,1.249-3.346
					c-3.076-5.681,1.196-6.071,4.755-6.669c3.426-0.575,6.94-0.597,10.395-1.029C1054.576,1464.079,1057.281,1463.483,1060,1463z"/>
				<path fill-rule="evenodd" clip-rule="evenodd" fill="#FFFFFF" d="M937,1590c1.114,3.487,2.508,6.912,3.294,10.471
					c3.427,15.524,12.11,27.634,23.448,38.43c5.351,5.096,9.128,11.807,14.166,17.283c4.473,4.862,9.209,9.793,14.702,13.341
					c10.975,7.091,22.011,14.601,34.035,19.402c10.765,4.299,22.857,5.371,34.438,7.458c2.804,0.505,4.752,1.009,5.379,3.951
					c0.722,3.394,2.91,4.238,6.22,4.267c17.745,0.149,33.822-5.729,49.75-12.78c18.037-7.984,31.481-21.229,44.136-35.808
					c9.382-10.809,16.076-22.843,19.482-36.637c1.383-5.604,2.674-11.62-3.59-15.756c-0.679-0.448-1.143-1.712-1.154-2.604
					c-0.124-9.482-0.49-18.986,0.032-28.438c0.159-2.88,2.449-5.962,4.487-8.328c2.067-2.401,3.051-4.313,1.803-7.498
					c-3.756-9.583-6.548-19.607-11.023-28.826c-3.565-7.347-9.047-13.763-12.998-19.588c-4.418,0.643-7.59,1.104-10.762,1.564
					c1.083-2.601,2.167-5.2,3.654-8.767c-1.034-0.932-2.829-2.941-5.01-4.353c-1.081-0.699-2.905-0.534-4.337-0.344
					c-2.216,0.296-4.385,0.948-6.574,1.449c0.537-2.29,1.073-4.58,1.872-7.988c-2.462-4.846-5.121-5.553-9.649-1.947
					c-1.365,1.087-3.639,1.031-5.497,1.498c0.328-1.765,0.521-3.571,1.042-5.278c0.266-0.87,1.12-1.56,1.983-2.692
					c-3.104-1.755-5.927-3.35-9.204-5.2c-1.042,1.372-1.799,2.932-3.034,3.843c-1.396,1.03-3.221,1.479-4.859,2.18
					c-0.107-1.647-0.369-3.305-0.262-4.938c0.06-0.918,0.727-1.796,1.393-3.312c-3.183-1.516-6.225-2.963-9.768-4.65
					c-0.723,2.187-1.043,3.998-1.913,5.488c-0.576,0.987-1.972,2.124-2.94,2.071c-0.921-0.05-2.3-1.435-2.53-2.447
					c-0.486-2.134,0.349-5.924-0.595-6.359c-3.846-1.778-8.151-2.576-12.302-3.679c-2.089-0.555-4.209-0.988-6.315-1.478
					c37.333,0,74.667,0,112,0c0,81,0,162,0,243c-84.333,0-168.667,0-253,0C937,1667.333,937,1628.667,937,1590z"/>
				<path fill-rule="evenodd" clip-rule="evenodd" fill="#FFFFFF" d="M1060,1463c-2.719,0.483-5.424,1.079-8.161,1.421
					c-3.455,0.433-6.969,0.454-10.395,1.029c-3.559,0.598-7.831,0.988-4.755,6.669c0.373,0.688-0.795,2.21-1.249,3.346
					c-1.394-0.586-3.606-0.822-4.035-1.822c-1.536-3.584-4.058-3.854-7.247-3.134c-3.292,0.745-5.598,1.819-3.85,6.047
					c0.491,1.188-0.779,3.103-1.242,4.685c-1.396-0.853-3.468-1.384-4.055-2.62c-1.521-3.204-3.139-4.073-6.069-1.751
					c-2.396,1.898-7.622,2.175-3.966,7.343c0.571,0.808,1.379,1.76,1.343,2.614c-0.062,1.458-0.706,2.892-1.105,4.335
					c-1.287-0.453-2.923-0.563-3.784-1.438c-1.457-1.479-2.425-3.441-4.106-5.963c-5.273,4.235-10.138,8.117-14.972,12.036
					c-2.147,1.74-2.146,3.55-0.055,5.392c2.368,2.087,2.113,4.015,0.051,6.367c-8.859,10.114-17.621,20.314-26.323,30.564
					c-9.203,10.84-15.373,23.141-17.604,37.3c-0.246,1.562-0.937,3.056-1.421,4.58c0-38.919,0-77.838,0-117
					C978,1463,1019,1463,1060,1463z"/>
			</g>
		</g>
	</g>
	<g id="The_Ivory_Reef_xA0_Image_1_">
		<g>
			<g>
				<path fill="#FFFFFF" d="M1238,1646c0-84,0-168,0-252c80.333,0,160.667,0,241,0c0,84,0,168,0,252
					C1398.667,1646,1318.333,1646,1238,1646z M1349.889,1642.005c24.837,0.122,45.935-5.781,65.944-16.101
					c3.116-1.607,4.692-3.285,4.276-7.32c-0.278-2.697,1.101-6.29,2.979-8.348c5.718-6.263,11.902-12.126,18.205-17.813
					c1.965-1.773,4.804-3.251,7.383-3.521c4.333-0.453,7.145-2.457,9.139-6c7.58-13.464,12.788-27.805,15.673-42.98
					c0.67-3.521,0.087-6.161-4.245-6.97c-1.245-0.231-2.762-2.302-2.957-3.696c-0.129-0.919,1.728-2.797,2.967-3.088
					c2.762-0.649,5.258-1.033,5.443-4.61c0.188-3.631-1.861-4.893-5.047-5.574c-0.924-0.198-2.058-1.851-2.127-2.899
					c-0.064-0.985,0.957-2.707,1.839-2.971c3.306-0.987,4.712-2.908,4.165-6.281c-0.583-3.591-3.463-3.291-6.069-3.882
					c-1.286-0.291-3.016-1.811-3.184-2.971c-0.172-1.192,1.036-3.42,2.126-3.802c3.081-1.077,4.268-3.224,2.956-5.676
					c-0.822-1.536-3.455-2.126-5.306-3.08c-1.458-0.752-4.063-1.245-4.2-2.149c-0.231-1.53,0.626-4.106,1.844-4.795
					c2.698-1.525,3.126-3.128,1.844-5.642c-1.206-2.364-2.688-3.361-5.628-2.464c-1.376,0.42-4.122-0.518-4.754-1.664
					c-0.626-1.134,0.075-3.955,1.17-4.889c2.478-2.111,2.792-3.947,0.802-6.327c-5.861-7.012-11.386-14.347-17.683-20.942
					c-17.278-18.099-40.876-25.009-62.984-34.319c-9.938-4.187-20.972-3.872-31.598-2.797c-15.343,1.552-29.068,6.938-39.409,19.135
					c-3.422,4.035-6.9,8.085-10.796,11.642c-5.155,4.705-11.019,8.642-16.105,13.412c-32.989,30.942-43.047,68.12-29.48,111.359
					c5.241,16.703,13.508,31.823,25.354,44.901c1.158,1.278,2.056,4.868,1.479,5.313c-4.864,3.749-1.313,5.961,1.246,8.192
					C1297.191,1631.597,1322.482,1642.399,1349.889,1642.005z"/>
				<path fill-rule="evenodd" clip-rule="evenodd" d="M1349.889,1642.005c-27.407,0.395-52.698-10.408-74.736-29.616
					c-2.56-2.231-6.11-4.443-1.246-8.192c0.578-0.445-0.321-4.035-1.479-5.313c-11.846-13.078-20.113-28.198-25.354-44.901
					c-13.567-43.239-3.509-80.417,29.48-111.359c5.086-4.771,10.95-8.707,16.105-13.412c3.896-3.557,7.375-7.606,10.796-11.642
					c10.34-12.196,24.065-17.583,39.409-19.135c10.626-1.075,21.66-1.39,31.598,2.797c22.107,9.311,45.706,16.221,62.984,34.319
					c6.297,6.596,11.822,13.931,17.683,20.942c1.99,2.38,1.676,4.216-0.802,6.327c-1.096,0.934-1.796,3.755-1.17,4.889
					c0.632,1.146,3.377,2.084,4.754,1.664c2.94-0.897,4.422,0.1,5.628,2.464c1.282,2.514,0.854,4.116-1.844,5.642
					c-1.218,0.688-2.075,3.265-1.844,4.795c0.137,0.904,2.743,1.397,4.2,2.149c1.851,0.954,4.484,1.544,5.306,3.08
					c1.312,2.452,0.125,4.599-2.956,5.676c-1.091,0.382-2.299,2.609-2.126,3.802c0.168,1.16,1.898,2.68,3.184,2.971
					c2.606,0.591,5.486,0.291,6.069,3.882c0.547,3.373-0.859,5.294-4.165,6.281c-0.882,0.264-1.903,1.985-1.839,2.971
					c0.069,1.049,1.203,2.701,2.127,2.899c3.186,0.682,5.235,1.943,5.047,5.574c-0.185,3.577-2.681,3.961-5.443,4.61
					c-1.24,0.291-3.096,2.169-2.967,3.088c0.195,1.395,1.712,3.465,2.957,3.696c4.332,0.809,4.915,3.448,4.245,6.97
					c-2.885,15.176-8.093,29.517-15.673,42.98c-1.995,3.543-4.807,5.547-9.139,6c-2.579,0.27-5.418,1.747-7.383,3.521
					c-6.303,5.688-12.487,11.551-18.205,17.813c-1.879,2.058-3.258,5.65-2.979,8.348c0.416,4.035-1.161,5.713-4.276,7.32
					C1395.824,1636.224,1374.727,1642.127,1349.889,1642.005z"/>
			</g>
		</g>
	</g>
</g>
<g id="Indian_1_">
	<g id="Akara_xA0_Image_1_">
		<g>
			<g>
				<path d="M2573,1725c6,0,12,0,18,0c2.105,0.489,4.227,0.923,6.315,1.478c4.151,1.103,8.456,1.9,12.302,3.679
					c0.944,0.436,0.109,4.226,0.596,6.359c0.23,1.013,1.609,2.397,2.53,2.447c0.968,0.053,2.364-1.084,2.94-2.071
					c0.869-1.49,1.189-3.302,1.912-5.488c3.543,1.688,6.585,3.135,9.768,4.65c-0.666,1.517-1.332,2.395-1.393,3.312
					c-0.105,1.633,0.155,3.29,0.263,4.938c1.639-0.701,3.464-1.149,4.859-2.18c1.235-0.911,1.991-2.471,3.034-3.843
					c3.276,1.851,6.099,3.445,9.203,5.2c-0.863,1.133-1.718,1.822-1.983,2.692c-0.521,1.707-0.714,3.514-1.042,5.278
					c1.857-0.467,4.133-0.411,5.497-1.498c4.528-3.605,7.187-2.898,9.649,1.947c-0.799,3.408-1.336,5.698-1.872,7.988
					c2.188-0.501,4.357-1.153,6.573-1.449c1.433-0.19,3.256-0.355,4.338,0.344c2.181,1.411,3.976,3.421,5.01,4.353
					c-1.486,3.566-2.57,6.166-3.654,8.767c3.172-0.461,6.344-0.922,10.762-1.564c3.951,5.825,9.433,12.241,12.998,19.588
					c4.475,9.219,7.267,19.243,11.023,28.826c1.248,3.185,0.264,5.097-1.804,7.498c-2.038,2.366-4.327,5.448-4.487,8.328
					c-0.521,9.452-0.156,18.956-0.031,28.438c0.012,0.893,0.475,2.156,1.154,2.604c6.264,4.136,4.973,10.152,3.59,15.756
					c-3.406,13.794-10.101,25.828-19.482,36.637c-12.655,14.578-26.1,27.823-44.137,35.808c-15.929,7.051-32.006,12.93-49.75,12.78
					c-3.311-0.028-5.498-0.873-6.221-4.267c-0.627-2.942-2.574-3.446-5.379-3.951c-11.58-2.087-23.674-3.159-34.438-7.458
					c-12.023-4.802-23.061-12.312-34.035-19.402c-5.493-3.548-10.229-8.479-14.702-13.341c-5.037-5.477-8.814-12.188-14.165-17.283
					c-11.338-10.796-20.021-22.905-23.448-38.43c-0.786-3.559-2.18-6.983-3.294-10.471c0-3.333,0-6.667,0-10
					c0.484-1.524,1.176-3.018,1.422-4.58c2.23-14.159,8.4-26.46,17.604-37.3c8.702-10.25,17.464-20.45,26.323-30.564
					c2.062-2.353,2.316-4.28-0.052-6.367c-2.09-1.842-2.092-3.651,0.056-5.392c4.835-3.919,9.698-7.801,14.972-12.036
					c1.682,2.521,2.649,4.483,4.106,5.963c0.86,0.874,2.497,0.984,3.784,1.438c0.399-1.443,1.043-2.877,1.105-4.335
					c0.036-0.854-0.772-1.807-1.344-2.614c-3.655-5.168,1.57-5.444,3.967-7.343c2.93-2.322,4.547-1.453,6.068,1.751
					c0.588,1.236,2.66,1.768,4.055,2.62c0.463-1.582,1.734-3.497,1.242-4.685c-1.747-4.228,0.559-5.302,3.851-6.047
					c3.188-0.721,5.71-0.45,7.247,3.134c0.428,1,2.641,1.236,4.034,1.822c0.454-1.136,1.622-2.658,1.249-3.346
					c-3.076-5.681,1.195-6.071,4.755-6.669c3.426-0.575,6.94-0.597,10.396-1.029C2567.576,1726.079,2570.281,1725.483,2573,1725z"/>
				<path fill-rule="evenodd" clip-rule="evenodd" fill="#FFFFFF" d="M2450,1852c1.114,3.487,2.508,6.912,3.294,10.471
					c3.427,15.524,12.11,27.634,23.448,38.43c5.351,5.096,9.128,11.807,14.165,17.283c4.474,4.862,9.209,9.793,14.702,13.341
					c10.975,7.091,22.012,14.601,34.035,19.402c10.764,4.299,22.857,5.371,34.438,7.458c2.805,0.505,4.752,1.009,5.379,3.951
					c0.723,3.394,2.91,4.238,6.221,4.267c17.744,0.149,33.821-5.729,49.75-12.78c18.037-7.984,31.481-21.229,44.137-35.808
					c9.382-10.809,16.076-22.843,19.482-36.637c1.383-5.604,2.674-11.62-3.59-15.756c-0.68-0.448-1.143-1.712-1.154-2.604
					c-0.125-9.482-0.49-18.986,0.031-28.438c0.16-2.88,2.449-5.962,4.487-8.328c2.067-2.401,3.052-4.313,1.804-7.498
					c-3.757-9.583-6.549-19.607-11.023-28.826c-3.565-7.347-9.047-13.763-12.998-19.588c-4.418,0.643-7.59,1.104-10.762,1.564
					c1.084-2.601,2.168-5.2,3.654-8.767c-1.034-0.932-2.829-2.941-5.01-4.353c-1.082-0.699-2.905-0.534-4.338-0.344
					c-2.216,0.296-4.385,0.948-6.573,1.449c0.536-2.29,1.073-4.58,1.872-7.988c-2.463-4.846-5.121-5.553-9.649-1.947
					c-1.364,1.087-3.64,1.031-5.497,1.498c0.328-1.765,0.521-3.571,1.042-5.278c0.266-0.87,1.12-1.56,1.983-2.692
					c-3.104-1.755-5.927-3.35-9.203-5.2c-1.043,1.372-1.799,2.932-3.034,3.843c-1.396,1.03-3.221,1.479-4.859,2.18
					c-0.107-1.647-0.368-3.305-0.263-4.938c0.061-0.918,0.727-1.796,1.393-3.312c-3.183-1.516-6.225-2.963-9.768-4.65
					c-0.723,2.187-1.043,3.998-1.912,5.488c-0.576,0.987-1.973,2.124-2.94,2.071c-0.921-0.05-2.3-1.435-2.53-2.447
					c-0.486-2.134,0.349-5.924-0.596-6.359c-3.846-1.778-8.15-2.576-12.302-3.679c-2.089-0.555-4.21-0.988-6.315-1.478
					c37.334,0,74.666,0,112,0c0,81,0,162,0,243c-84.334,0-168.666,0-253,0C2450,1929.333,2450,1890.667,2450,1852z"/>
				<path fill-rule="evenodd" clip-rule="evenodd" fill="#FFFFFF" d="M2573,1725c-2.719,0.483-5.424,1.079-8.16,1.421
					c-3.455,0.433-6.97,0.454-10.396,1.029c-3.56,0.598-7.831,0.988-4.755,6.669c0.373,0.688-0.795,2.21-1.249,3.346
					c-1.394-0.586-3.606-0.822-4.034-1.822c-1.537-3.584-4.059-3.854-7.247-3.134c-3.292,0.745-5.598,1.819-3.851,6.047
					c0.492,1.188-0.779,3.103-1.242,4.685c-1.395-0.853-3.467-1.384-4.055-2.62c-1.521-3.204-3.139-4.073-6.068-1.751
					c-2.396,1.898-7.622,2.175-3.967,7.343c0.571,0.808,1.38,1.76,1.344,2.614c-0.062,1.458-0.706,2.892-1.105,4.335
					c-1.287-0.453-2.924-0.563-3.784-1.438c-1.457-1.479-2.425-3.441-4.106-5.963c-5.273,4.235-10.137,8.117-14.972,12.036
					c-2.147,1.74-2.146,3.55-0.056,5.392c2.368,2.087,2.113,4.015,0.052,6.367c-8.859,10.114-17.621,20.314-26.323,30.564
					c-9.203,10.84-15.373,23.141-17.604,37.3c-0.246,1.562-0.938,3.056-1.422,4.58c0-38.919,0-77.838,0-117
					C2491,1725,2532,1725,2573,1725z"/>
			</g>
		</g>
	</g>
	<g id="South_Ceylon_xA0_Image_1_">
		<g>
			<g>
				<path fill="#FFFFFF" d="M2253,1520c0-84,0-168,0-252c80.334,0,160.666,0,241,0c0,84,0,168,0,252
					C2413.666,1520,2333.334,1520,2253,1520z M2364.889,1516.005c24.838,0.122,45.936-5.781,65.945-16.101
					c3.115-1.607,4.691-3.285,4.275-7.32c-0.277-2.697,1.102-6.29,2.98-8.348c5.717-6.263,11.902-12.126,18.205-17.813
					c1.965-1.773,4.804-3.251,7.383-3.521c4.332-0.453,7.145-2.457,9.139-6c7.58-13.464,12.788-27.805,15.674-42.98
					c0.67-3.521,0.087-6.161-4.245-6.97c-1.245-0.231-2.763-2.302-2.957-3.696c-0.129-0.919,1.728-2.797,2.968-3.088
					c2.762-0.649,5.258-1.033,5.442-4.61c0.188-3.631-1.861-4.893-5.048-5.574c-0.924-0.198-2.058-1.851-2.127-2.899
					c-0.064-0.985,0.957-2.707,1.84-2.971c3.305-0.987,4.712-2.908,4.164-6.281c-0.582-3.591-3.463-3.291-6.068-3.882
					c-1.287-0.291-3.017-1.811-3.185-2.971c-0.173-1.192,1.036-3.42,2.126-3.802c3.081-1.077,4.268-3.224,2.956-5.676
					c-0.821-1.536-3.454-2.126-5.306-3.08c-1.457-0.752-4.063-1.245-4.2-2.149c-0.231-1.53,0.626-4.106,1.844-4.795
					c2.698-1.525,3.126-3.128,1.845-5.642c-1.207-2.364-2.688-3.361-5.629-2.464c-1.376,0.42-4.121-0.518-4.754-1.664
					c-0.625-1.134,0.075-3.955,1.171-4.889c2.478-2.111,2.792-3.947,0.802-6.327c-5.86-7.012-11.385-14.347-17.683-20.942
					c-17.278-18.099-40.876-25.009-62.983-34.319c-9.939-4.187-20.973-3.872-31.599-2.797c-15.343,1.552-29.068,6.938-39.409,19.135
					c-3.422,4.035-6.899,8.085-10.796,11.642c-5.155,4.705-11.019,8.642-16.104,13.412c-32.989,30.942-43.047,68.12-29.48,111.359
					c5.24,16.703,13.508,31.823,25.354,44.901c1.158,1.278,2.057,4.868,1.479,5.313c-4.863,3.749-1.312,5.961,1.246,8.192
					C2312.191,1505.597,2337.482,1516.399,2364.889,1516.005z"/>
				<path fill-rule="evenodd" clip-rule="evenodd" d="M2364.889,1516.005c-27.406,0.395-52.697-10.408-74.736-29.616
					c-2.559-2.231-6.109-4.443-1.246-8.192c0.578-0.445-0.32-4.035-1.479-5.313c-11.846-13.078-20.113-28.198-25.354-44.901
					c-13.566-43.239-3.509-80.417,29.48-111.359c5.086-4.771,10.949-8.707,16.104-13.412c3.896-3.557,7.374-7.606,10.796-11.642
					c10.341-12.196,24.066-17.583,39.409-19.135c10.626-1.075,21.659-1.39,31.599,2.797c22.107,9.311,45.705,16.221,62.983,34.319
					c6.298,6.596,11.822,13.931,17.683,20.942c1.99,2.38,1.676,4.216-0.802,6.327c-1.096,0.934-1.796,3.755-1.171,4.889
					c0.633,1.146,3.378,2.084,4.754,1.664c2.94-0.897,4.422,0.1,5.629,2.464c1.281,2.514,0.854,4.116-1.845,5.642
					c-1.218,0.688-2.075,3.265-1.844,4.795c0.137,0.904,2.743,1.397,4.2,2.149c1.852,0.954,4.484,1.544,5.306,3.08
					c1.312,2.452,0.125,4.599-2.956,5.676c-1.09,0.382-2.299,2.609-2.126,3.802c0.168,1.16,1.897,2.68,3.185,2.971
					c2.605,0.591,5.486,0.291,6.068,3.882c0.548,3.373-0.859,5.294-4.164,6.281c-0.883,0.264-1.904,1.985-1.84,2.971
					c0.069,1.049,1.203,2.701,2.127,2.899c3.187,0.682,5.235,1.943,5.048,5.574c-0.185,3.577-2.681,3.961-5.442,4.61
					c-1.24,0.291-3.097,2.169-2.968,3.088c0.194,1.395,1.712,3.465,2.957,3.696c4.332,0.809,4.915,3.448,4.245,6.97
					c-2.886,15.176-8.094,29.517-15.674,42.98c-1.994,3.543-4.807,5.547-9.139,6c-2.579,0.27-5.418,1.747-7.383,3.521
					c-6.303,5.688-12.488,11.551-18.205,17.813c-1.879,2.058-3.258,5.65-2.98,8.348c0.416,4.035-1.16,5.713-4.275,7.32
					C2410.824,1510.224,2389.727,1516.127,2364.889,1516.005z"/>
			</g>
		</g>
	</g>
	<g id="Microcorp_xA0_Image_1_">
		<g>
			<g>
				<path d="M2308,1563c9,0,18,0,27,0c2.301,0.801,4.542,1.958,6.91,2.346c17.293,2.832,33.24,9.083,47.813,18.747
					c6.41,4.251,12.555,8.902,19.093,13.566c-3.463,3.98-6.258,6.791-2.443,10.841c8.175,8.678,16.072,17.618,24.271,26.271
					c16.316,17.22,21.219,37.917,18.484,60.807c-1.764,14.766-9.111,26.764-19.693,36.985c-2.48,2.396-4.992,4.996-6.651,7.97
					c-8,14.333-19.115,26.075-32.159,35.475c-19.372,13.957-41.537,21.182-65.479,22.502c-2.715,0.149-4.189,0.954-4.762,3.905
					c-0.285,1.478-2.285,3.849-3.316,3.753c-5.582-0.522-11.138-1.535-16.618-2.757c-1.223-0.272-2.18-2.004-3.128-3.171
					c-1.043-1.283-1.937-2.689-2.896-4.043c-1.136,1.053-2.762,1.897-3.315,3.197c-1.555,3.651-3.966,1.568-5.846,0.952
					c-1.92-0.628-4.85-0.63-4.079-4.388c0.308-1.497-0.933-3.312-1.469-4.981c-1.419,1.106-2.721,2.438-4.291,3.252
					c-1.427,0.739-3.345,1.601-4.698,1.208c-3.893-1.125-7.223-2.924-4.177-8.058c0.466-0.785-0.69-2.533-1.096-3.835
					c-1.296,0.438-2.904,0.544-3.813,1.396c-1.26,1.18-1.994,2.92-3.105,4.657c-4.082-2.95-9.59-4.197-7.704-10.962
					c0.294-1.052-0.517-2.612-1.198-3.7c-2.65-4.231-5.251-8.52-8.248-12.502c-4.242-5.638-8.801-10.765-17.076-10.012
					c-4.298,0.39-5.75-3.003-6.521-6.701c0.731-0.506,1.374-0.789,1.794-1.268c1.467-1.669,2.856-3.406,4.275-5.117
					c-2.074-0.195-4.182-0.229-6.215-0.636c-1.655-0.331-3.726-0.668-4.711-1.792c-1.553-1.77-2.348-4.202-3.652-6.716
					c2.317-1.063,4.283-1.63,5.813-2.778c1.132-0.851,1.697-2.458,2.515-3.728c-1.539-0.567-3.065-1.536-4.623-1.59
					c-1.553-0.054-3.139,0.809-5.265,1.432c-0.988-3.155-1.886-6.022-2.901-9.262c2.528-0.545,4.477-0.584,5.996-1.411
					c1.223-0.667,1.928-2.287,2.861-3.484c-1.279-0.787-2.483-1.798-3.871-2.274c-0.82-0.281-1.926,0.331-2.915,0.456
					c-2.326,0.297-4.761,0.275-4.349-2.971c0.336-2.646-2.206-6.64,3.207-7.418c1.725-0.249,3.244-1.914,4.857-2.931
					c-1.496-1.073-2.947-2.973-4.498-3.059c-4.231-0.234-5.182-2.229-5.213-6.083c-0.034-4.184,2.062-4.848,5.521-5.227
					c1.506-0.166,2.814-2.132,4.214-3.28c-1.355-0.947-2.663-2.597-4.077-2.693c-2.924-0.2-4.395-1.461-4.508-4.175
					c-0.102-2.427-0.297-5.025,0.408-7.28c3.469-11.104,6.902-22.239,11.018-33.11c2.012-5.315,4.807-10.648,8.448-14.959
					c5.665-6.709,12.466-12.444,18.586-18.784c14.196-14.703,32.167-22.54,51.228-28.383
					C2297.083,1565.561,2302.574,1564.387,2308,1563z"/>
				<path fill-rule="evenodd" clip-rule="evenodd" fill="#FFFFFF" d="M2308,1563c-5.426,1.387-10.917,2.561-16.266,4.2
					c-19.061,5.843-37.031,13.68-51.228,28.383c-6.12,6.34-12.921,12.075-18.586,18.784c-3.642,4.311-6.437,9.644-8.448,14.959
					c-4.115,10.871-7.549,22.007-11.018,33.11c-0.705,2.255-0.51,4.854-0.408,7.28c0.113,2.714,1.584,3.975,4.508,4.175
					c1.414,0.097,2.722,1.746,4.077,2.693c-1.399,1.148-2.708,3.114-4.214,3.28c-3.459,0.379-5.556,1.043-5.521,5.227
					c0.031,3.854,0.981,5.849,5.213,6.083c1.551,0.086,3.002,1.985,4.498,3.059c-1.613,1.017-3.133,2.682-4.857,2.931
					c-5.413,0.778-2.871,4.771-3.207,7.418c-0.412,3.246,2.022,3.268,4.349,2.971c0.989-0.125,2.095-0.737,2.915-0.456
					c1.388,0.477,2.592,1.487,3.871,2.274c-0.934,1.197-1.639,2.817-2.861,3.484c-1.52,0.827-3.468,0.866-5.996,1.411
					c1.016,3.239,1.913,6.106,2.901,9.262c2.126-0.623,3.712-1.485,5.265-1.432c1.558,0.054,3.084,1.022,4.623,1.59
					c-0.817,1.27-1.383,2.877-2.515,3.728c-1.53,1.148-3.496,1.715-5.813,2.778c1.305,2.514,2.1,4.946,3.652,6.716
					c0.985,1.124,3.056,1.461,4.711,1.792c2.033,0.407,4.141,0.44,6.215,0.636c-1.419,1.711-2.809,3.448-4.275,5.117
					c-0.42,0.479-1.062,0.762-1.794,1.268c0.771,3.698,2.223,7.091,6.521,6.701c8.275-0.753,12.834,4.374,17.076,10.012
					c2.997,3.982,5.598,8.271,8.248,12.502c0.682,1.088,1.492,2.648,1.198,3.7c-1.886,6.765,3.622,8.012,7.704,10.962
					c1.111-1.737,1.846-3.478,3.105-4.657c0.909-0.852,2.518-0.958,3.813-1.396c0.405,1.302,1.562,3.05,1.096,3.835
					c-3.046,5.134,0.284,6.933,4.177,8.058c1.354,0.393,3.271-0.469,4.698-1.208c1.57-0.813,2.872-2.146,4.291-3.252
					c0.536,1.67,1.776,3.484,1.469,4.981c-0.771,3.758,2.159,3.76,4.079,4.388c1.88,0.616,4.291,2.699,5.846-0.952
					c0.554-1.3,2.18-2.145,3.315-3.197c0.959,1.354,1.853,2.76,2.896,4.043c0.948,1.167,1.905,2.898,3.128,3.171
					c5.48,1.222,11.036,2.234,16.618,2.757c1.031,0.096,3.031-2.275,3.316-3.753c0.572-2.951,2.047-3.756,4.762-3.905
					c23.941-1.32,46.106-8.545,65.479-22.502c13.044-9.399,24.159-21.142,32.159-35.475c1.659-2.974,4.171-5.573,6.651-7.97
					c10.582-10.222,17.93-22.22,19.693-36.985c2.734-22.89-2.168-43.587-18.484-60.807c-8.199-8.653-16.097-17.594-24.271-26.271
					c-3.814-4.05-1.02-6.86,2.443-10.841c-6.538-4.664-12.683-9.315-19.093-13.566c-14.573-9.664-30.521-15.915-47.813-18.747
					c-2.368-0.388-4.609-1.545-6.91-2.346c39,0,78,0,117,0c0,81.667,0,163.333,0,245c-86.334,0-172.666,0-259,0
					c0-81.667,0-163.333,0-245C2231.334,1563,2269.666,1563,2308,1563z"/>
			</g>
		</g>
	</g>
</g>
<g id="Asia_Pacific_1_">
	<g id="SungTzu_xA0_Image_1_">
		<g>
			<g>
				<path d="M3185,1093c9,0,18,0,27,0c2.301,0.801,4.542,1.958,6.91,2.346c17.293,2.832,33.24,9.083,47.813,18.747
					c6.41,4.251,12.555,8.902,19.093,13.566c-3.463,3.98-6.258,6.791-2.443,10.841c8.175,8.678,16.072,17.618,24.271,26.271
					c16.316,17.22,21.219,37.917,18.484,60.807c-1.764,14.766-9.111,26.764-19.693,36.985c-2.48,2.396-4.992,4.996-6.651,7.97
					c-8,14.333-19.115,26.075-32.159,35.475c-19.372,13.957-41.537,21.182-65.479,22.502c-2.715,0.149-4.189,0.954-4.762,3.905
					c-0.285,1.478-2.285,3.849-3.316,3.753c-5.582-0.522-11.138-1.535-16.618-2.757c-1.223-0.272-2.18-2.004-3.128-3.171
					c-1.043-1.283-1.937-2.689-2.896-4.043c-1.136,1.053-2.762,1.897-3.315,3.197c-1.555,3.651-3.966,1.568-5.846,0.952
					c-1.92-0.628-4.85-0.63-4.079-4.388c0.308-1.497-0.933-3.312-1.469-4.981c-1.419,1.106-2.721,2.438-4.291,3.252
					c-1.427,0.739-3.345,1.601-4.698,1.208c-3.893-1.125-7.223-2.924-4.177-8.058c0.466-0.785-0.69-2.533-1.096-3.835
					c-1.296,0.438-2.904,0.544-3.813,1.396c-1.26,1.18-1.994,2.92-3.105,4.657c-4.082-2.95-9.59-4.197-7.704-10.962
					c0.294-1.052-0.517-2.612-1.198-3.7c-2.65-4.231-5.251-8.52-8.248-12.502c-4.242-5.638-8.801-10.765-17.076-10.012
					c-4.298,0.39-5.75-3.003-6.521-6.701c0.731-0.506,1.374-0.789,1.794-1.268c1.467-1.669,2.856-3.406,4.275-5.117
					c-2.074-0.195-4.182-0.229-6.215-0.636c-1.655-0.331-3.726-0.668-4.711-1.792c-1.553-1.77-2.348-4.202-3.652-6.716
					c2.317-1.063,4.283-1.63,5.813-2.778c1.132-0.851,1.697-2.458,2.515-3.728c-1.539-0.567-3.065-1.536-4.623-1.59
					c-1.553-0.054-3.139,0.809-5.265,1.432c-0.988-3.155-1.886-6.022-2.901-9.262c2.528-0.545,4.477-0.584,5.996-1.411
					c1.223-0.667,1.928-2.287,2.861-3.484c-1.279-0.787-2.483-1.798-3.871-2.274c-0.82-0.281-1.926,0.331-2.915,0.456
					c-2.326,0.297-4.761,0.275-4.349-2.971c0.336-2.646-2.206-6.64,3.207-7.418c1.725-0.249,3.244-1.914,4.857-2.931
					c-1.496-1.073-2.947-2.973-4.498-3.059c-4.231-0.234-5.182-2.229-5.213-6.083c-0.034-4.184,2.062-4.848,5.521-5.227
					c1.506-0.166,2.814-2.132,4.214-3.28c-1.355-0.947-2.663-2.597-4.077-2.693c-2.924-0.2-4.395-1.461-4.508-4.175
					c-0.102-2.427-0.297-5.025,0.408-7.28c3.469-11.104,6.902-22.239,11.018-33.11c2.012-5.315,4.807-10.648,8.448-14.959
					c5.665-6.709,12.466-12.444,18.586-18.784c14.196-14.703,32.167-22.54,51.228-28.383
					C3174.083,1095.561,3179.574,1094.387,3185,1093z"/>
				<path fill-rule="evenodd" clip-rule="evenodd" fill="#FFFFFF" d="M3185,1093c-5.426,1.387-10.917,2.561-16.266,4.2
					c-19.061,5.843-37.031,13.68-51.228,28.383c-6.12,6.34-12.921,12.075-18.586,18.784c-3.642,4.311-6.437,9.644-8.448,14.959
					c-4.115,10.871-7.549,22.007-11.018,33.11c-0.705,2.255-0.51,4.854-0.408,7.28c0.113,2.714,1.584,3.975,4.508,4.175
					c1.414,0.097,2.722,1.746,4.077,2.693c-1.399,1.148-2.708,3.114-4.214,3.28c-3.459,0.379-5.556,1.043-5.521,5.227
					c0.031,3.854,0.981,5.849,5.213,6.083c1.551,0.086,3.002,1.985,4.498,3.059c-1.613,1.017-3.133,2.682-4.857,2.931
					c-5.413,0.778-2.871,4.771-3.207,7.418c-0.412,3.246,2.022,3.268,4.349,2.971c0.989-0.125,2.095-0.737,2.915-0.456
					c1.388,0.477,2.592,1.487,3.871,2.274c-0.934,1.197-1.639,2.817-2.861,3.484c-1.52,0.827-3.468,0.866-5.996,1.411
					c1.016,3.239,1.913,6.106,2.901,9.262c2.126-0.623,3.712-1.485,5.265-1.432c1.558,0.054,3.084,1.022,4.623,1.59
					c-0.817,1.27-1.383,2.877-2.515,3.728c-1.53,1.148-3.496,1.715-5.813,2.778c1.305,2.514,2.1,4.946,3.652,6.716
					c0.985,1.124,3.056,1.461,4.711,1.792c2.033,0.407,4.141,0.44,6.215,0.636c-1.419,1.711-2.809,3.448-4.275,5.117
					c-0.42,0.479-1.062,0.762-1.794,1.268c0.771,3.698,2.223,7.091,6.521,6.701c8.275-0.753,12.834,4.374,17.076,10.012
					c2.997,3.982,5.598,8.271,8.248,12.502c0.682,1.088,1.492,2.648,1.198,3.7c-1.886,6.765,3.622,8.012,7.704,10.962
					c1.111-1.737,1.846-3.478,3.105-4.657c0.909-0.852,2.518-0.958,3.813-1.396c0.405,1.302,1.562,3.05,1.096,3.835
					c-3.046,5.134,0.284,6.933,4.177,8.058c1.354,0.393,3.271-0.469,4.698-1.208c1.57-0.813,2.872-2.146,4.291-3.252
					c0.536,1.67,1.776,3.484,1.469,4.981c-0.771,3.758,2.159,3.76,4.079,4.388c1.88,0.616,4.291,2.699,5.846-0.952
					c0.554-1.3,2.18-2.145,3.315-3.197c0.959,1.354,1.853,2.76,2.896,4.043c0.948,1.167,1.905,2.898,3.128,3.171
					c5.48,1.222,11.036,2.234,16.618,2.757c1.031,0.096,3.031-2.275,3.316-3.753c0.572-2.951,2.047-3.756,4.762-3.905
					c23.941-1.32,46.106-8.545,65.479-22.502c13.044-9.399,24.159-21.142,32.159-35.475c1.659-2.974,4.171-5.573,6.651-7.97
					c10.582-10.222,17.93-22.22,19.693-36.985c2.734-22.89-2.168-43.587-18.484-60.807c-8.199-8.653-16.097-17.594-24.271-26.271
					c-3.814-4.05-1.02-6.86,2.443-10.841c-6.538-4.664-12.683-9.315-19.093-13.566c-14.573-9.664-30.521-15.915-47.813-18.747
					c-2.368-0.388-4.609-1.545-6.91-2.346c39,0,78,0,117,0c0,81.667,0,163.333,0,245c-86.334,0-172.666,0-259,0
					c0-81.667,0-163.333,0-245C3108.334,1093,3146.666,1093,3185,1093z"/>
			</g>
		</g>
	</g>
	<g id="Neo_Tokyo_xA0_Image_1_">
		<g>
			<g>
				<path fill="#FFFFFF" d="M3074,1075c0-84,0-168,0-252c80.334,0,160.666,0,241,0c0,84,0,168,0,252
					C3234.666,1075,3154.334,1075,3074,1075z M3185.889,1071.005c24.838,0.122,45.936-5.781,65.945-16.101
					c3.115-1.607,4.691-3.285,4.275-7.32c-0.277-2.697,1.102-6.29,2.98-8.348c5.717-6.263,11.902-12.126,18.205-17.813
					c1.965-1.773,4.804-3.251,7.383-3.521c4.332-0.453,7.145-2.457,9.139-6c7.58-13.464,12.788-27.805,15.674-42.98
					c0.67-3.521,0.087-6.161-4.245-6.97c-1.245-0.231-2.763-2.302-2.957-3.696c-0.129-0.919,1.728-2.797,2.968-3.088
					c2.762-0.649,5.258-1.033,5.442-4.61c0.188-3.631-1.861-4.893-5.048-5.574c-0.924-0.198-2.058-1.851-2.127-2.899
					c-0.064-0.985,0.957-2.707,1.84-2.971c3.305-0.987,4.712-2.908,4.164-6.281c-0.582-3.591-3.463-3.291-6.068-3.882
					c-1.287-0.291-3.017-1.811-3.185-2.971c-0.173-1.192,1.036-3.42,2.126-3.802c3.081-1.077,4.268-3.224,2.956-5.676
					c-0.821-1.536-3.454-2.126-5.306-3.08c-1.457-0.752-4.063-1.245-4.2-2.149c-0.231-1.53,0.626-4.106,1.844-4.795
					c2.698-1.525,3.126-3.128,1.845-5.642c-1.207-2.364-2.688-3.361-5.629-2.464c-1.376,0.42-4.121-0.518-4.754-1.664
					c-0.625-1.134,0.075-3.955,1.171-4.889c2.478-2.111,2.792-3.947,0.802-6.327c-5.86-7.012-11.385-14.347-17.683-20.942
					c-17.278-18.099-40.876-25.009-62.983-34.319c-9.939-4.187-20.973-3.872-31.599-2.797c-15.343,1.552-29.068,6.938-39.409,19.135
					c-3.422,4.035-6.899,8.085-10.796,11.642c-5.155,4.705-11.019,8.642-16.104,13.412c-32.989,30.942-43.047,68.12-29.48,111.359
					c5.24,16.703,13.508,31.823,25.354,44.901c1.158,1.278,2.057,4.868,1.479,5.313c-4.863,3.749-1.312,5.961,1.246,8.192
					C3133.191,1060.597,3158.482,1071.399,3185.889,1071.005z"/>
				<path fill-rule="evenodd" clip-rule="evenodd" d="M3185.889,1071.005c-27.406,0.395-52.697-10.408-74.736-29.616
					c-2.559-2.231-6.109-4.443-1.246-8.192c0.578-0.445-0.32-4.035-1.479-5.313c-11.846-13.078-20.113-28.198-25.354-44.901
					c-13.566-43.239-3.509-80.417,29.48-111.359c5.086-4.771,10.949-8.707,16.104-13.412c3.896-3.557,7.374-7.606,10.796-11.642
					c10.341-12.196,24.066-17.583,39.409-19.135c10.626-1.075,21.659-1.39,31.599,2.797c22.107,9.311,45.705,16.221,62.983,34.319
					c6.298,6.596,11.822,13.931,17.683,20.942c1.99,2.38,1.676,4.216-0.802,6.327c-1.096,0.934-1.796,3.755-1.171,4.889
					c0.633,1.146,3.378,2.084,4.754,1.664c2.94-0.897,4.422,0.1,5.629,2.464c1.281,2.514,0.854,4.116-1.845,5.642
					c-1.218,0.688-2.075,3.265-1.844,4.795c0.137,0.904,2.743,1.397,4.2,2.149c1.852,0.954,4.484,1.544,5.306,3.08
					c1.312,2.452,0.125,4.599-2.956,5.676c-1.09,0.382-2.299,2.609-2.126,3.802c0.168,1.16,1.897,2.68,3.185,2.971
					c2.605,0.591,5.486,0.291,6.068,3.882c0.548,3.373-0.859,5.294-4.164,6.281c-0.883,0.264-1.904,1.985-1.84,2.971
					c0.069,1.049,1.203,2.701,2.127,2.899c3.187,0.682,5.235,1.943,5.048,5.574c-0.185,3.577-2.681,3.961-5.442,4.61
					c-1.24,0.291-3.097,2.169-2.968,3.088c0.194,1.395,1.712,3.465,2.957,3.696c4.332,0.809,4.915,3.448,4.245,6.97
					c-2.886,15.176-8.094,29.517-15.674,42.98c-1.994,3.543-4.807,5.547-9.139,6c-2.579,0.27-5.418,1.747-7.383,3.521
					c-6.303,5.688-12.488,11.551-18.205,17.813c-1.879,2.058-3.258,5.65-2.98,8.348c0.416,4.035-1.16,5.713-4.275,7.32
					C3231.824,1065.224,3210.727,1071.127,3185.889,1071.005z"/>
			</g>
		</g>
	</g>
</g>
</svg>
