<?xml version="1.0" encoding="utf-8"?>
<!-- Generator: Adobe Illustrator 16.0.0, SVG Export Plug-In . SVG Version: 6.00 Build 0)  -->
<!DOCTYPE svg PUBLIC "-//W3C//DTD SVG 1.1//EN" "http://www.w3.org/Graphics/SVG/1.1/DTD/svg11.dtd">
<svg version="1.1" id="Water_1_" xmlns="http://www.w3.org/2000/svg" xmlns:xlink="http://www.w3.org/1999/xlink" x="0px" y="0px"
	 width="2048px" height="1362px" viewBox="0 0 2048 1362" enable-background="new 0 0 2048 1362" xml:space="preserve">
<g id="US_Pacific_1_">
	<g id="Hawaiian_Preserve_xA0_Image_1_">
		<g>
			<g>k
				<path fill="none" d="M66,550c0-49.667,0-99.333,0-149c48,0,96,0,144,0c0,49.667,0,99.333,0,149C162,550,114,550,66,550z
					 M84.222,527.476c9.19,8.87,19.14,15.015,30.762,18.216c11.781,3.245,23.746,3.29,35.526,0.35
					c6.73-1.681,13.18-4.514,19.713-6.942c2.309-0.857,4.057-2.282,3.564-5.239c-0.371-2.229,1.002-3.746,2.478-5.176
					c3.352-3.246,6.563-6.649,10.071-9.715c1.551-1.354,3.6-2.607,5.571-2.896c2.539-0.373,3.989-1.598,4.891-3.662
					c2.39-5.47,4.901-10.907,6.887-16.525c1.35-3.819,1.895-7.923,2.737-11.62c-1.895-1.453-4.609-0.604-4.623-3.316
					c-0.016-3.084,3.244-1.611,4.551-3.211c0.719-2.227,0.449-3.779-2.371-4.796c-2.353-0.848-2.422-2.719-0.099-3.898
					c3.014-1.531,1.869-3.286,1.196-5.329c-0.834-0.16-1.559-0.137-2.102-0.438c-0.933-0.519-2.298-1.128-2.46-1.91
					c-0.148-0.715,0.869-2.062,1.706-2.514c2.436-1.316,1.381-2.837,1.016-3.897c-2.152-0.885-4.394-1.099-5.19-2.284
					c-1.555-2.313,1.662-3.08,2.56-4.89c-0.477-0.958-0.981-1.973-1.472-2.958c-1.905-0.399-4.136,1.685-5.41-1.068
					c-1.215-2.628,1.968-3.043,2.531-4.724c-5.924-9.29-12.929-17.378-22.479-22.531c-8.591-4.636-17.514-8.837-26.671-12.19
					c-8.732-3.199-17.993-2.952-26.992-0.271c-6.145,1.831-11.676,4.689-15.764,9.949c-2.021,2.599-4.224,5.219-6.842,7.157
					c-6.876,5.093-13.071,10.803-18.28,17.603c-6.972,9.102-11.21,19.373-11.836,30.758c-1.079,19.619,4.843,37.052,17.779,51.989
					c0.833,0.962,1.487,2.08,2.614,3.679C86.607,525.933,85.639,526.559,84.222,527.476z"/>
				<path fill-rule="evenodd" clip-rule="evenodd" d="M84.222,527.476c1.417-0.917,2.386-1.543,3.561-2.303
					c-1.127-1.599-1.78-2.717-2.614-3.679c-12.936-14.938-18.858-32.37-17.779-51.989c0.626-11.385,4.865-21.656,11.836-30.758
					c5.208-6.8,11.404-12.51,18.28-17.603c2.618-1.938,4.822-4.559,6.842-7.157c4.087-5.26,9.619-8.118,15.764-9.949
					c9-2.682,18.26-2.929,26.992,0.271c9.157,3.354,18.08,7.555,26.671,12.19c9.55,5.153,16.555,13.241,22.479,22.531
					c-0.563,1.681-3.746,2.096-2.531,4.724c1.274,2.753,3.505,0.669,5.41,1.068c0.491,0.985,0.995,2,1.472,2.958
					c-0.898,1.81-4.114,2.576-2.56,4.89c0.796,1.186,3.038,1.399,5.19,2.284c0.366,1.061,1.42,2.581-1.016,3.897
					c-0.836,0.452-1.854,1.799-1.706,2.514c0.162,0.782,1.527,1.392,2.46,1.91c0.543,0.302,1.268,0.278,2.102,0.438
					c0.673,2.043,1.817,3.798-1.196,5.329c-2.323,1.18-2.253,3.051,0.099,3.898c2.82,1.017,3.09,2.569,2.371,4.796
					c-1.307,1.6-4.567,0.127-4.551,3.211c0.014,2.713,2.728,1.863,4.623,3.316c-0.842,3.697-1.387,7.801-2.737,11.62
					c-1.986,5.618-4.497,11.056-6.887,16.525c-0.902,2.064-2.353,3.289-4.891,3.662c-1.971,0.289-4.021,1.542-5.571,2.896
					c-3.508,3.065-6.719,6.469-10.071,9.715c-1.476,1.43-2.849,2.947-2.478,5.176c0.492,2.957-1.255,4.382-3.564,5.239
					c-6.533,2.429-12.982,5.262-19.713,6.942c-11.78,2.94-23.745,2.896-35.526-0.35C103.361,542.49,93.412,536.346,84.222,527.476z"
					/>
			</g>
		</g>
	</g>
	<g id="Poseidon_xA0_Image_1_">
		<g>
			<g>
				<path fill="none" d="M60,380c0-49.667,0-99.333,0-149c47.667,0,95.333,0,143,0c0,49.667,0,99.333,0,149
					C155.333,380,107.667,380,60,380z M190.889,269.796c-8.033-12.91-18.501-22.254-32.23-27.884
					c-4.134-1.695-8.142-3.698-12.244-5.478c-1.825-0.791-3.703-1.511-5.619-2.032c-7.2-1.96-14.604-1.905-21.826-0.814
					c-7.858,1.187-14.877,4.531-20.074,11.046c-2.786,3.492-6.003,6.555-9.641,9.312c-7.462,5.657-13.85,12.454-18.896,20.429
					c-4.161,6.574-7.029,13.771-7.877,21.392c-2.34,21.042,3.244,39.873,17.109,56.079c0.847,0.99,1.599,2.062,2.485,3.213
					c-0.927,1.294-1.736,2.421-2.571,3.586c11.913,11.538,25.789,18.348,41.882,19.884c15.622,1.491,30.381-2.277,44.387-9.198
					c1.997-0.986,3.278-2.184,2.877-4.611c-0.39-2.362,0.669-4.117,2.368-5.707c3.406-3.188,6.721-6.474,10.03-9.763
					c1.463-1.454,2.996-2.687,5.201-2.533c2.595,0.181,3.855-1.433,4.982-3.435c3.942-7.007,6.923-14.374,8.543-22.263
					c0.423-2.058,0.713-4.143,1.081-6.311c-1.366-0.549-2.402-0.752-3.152-1.329c-0.689-0.531-1.547-1.526-1.459-2.202
					c0.098-0.742,1.084-1.571,1.88-1.967c0.979-0.487,2.161-0.566,3.349-0.844c-0.22-2.062-0.334-3.73-2.247-4.888
					c-2.959-1.791-2.821-1.843-0.196-4.003c0.768-0.631,1.378-1.782,1.519-2.771c0.223-1.573-0.849-2.392-2.4-2.564
					c-0.493-0.055-1.017-0.107-1.456-0.312c-2.171-1.017-2.33-2.611-0.405-4.125c0.737-0.58,1.559-1.054,2.419-1.628
					c-0.48-1.325-0.866-2.391-1.179-3.254c-1.896-1.006-4.551,1.099-5.397-1.821c-0.777-2.679,2.42-2.778,3.16-4.433
					c-0.708-2.089-1.356-3.9-4.22-2.99c-0.75,0.238-2.374-0.497-2.702-1.202c-0.333-0.715,0.332-1.996,0.769-2.931
					C189.396,270.899,190.061,270.549,190.889,269.796z"/>
				<path fill-rule="evenodd" clip-rule="evenodd" d="M190.889,269.796c-0.828,0.753-1.494,1.104-1.748,1.646
					c-0.437,0.935-1.102,2.216-0.769,2.931c0.329,0.705,1.952,1.44,2.702,1.202c2.864-0.91,3.513,0.901,4.22,2.99
					c-0.74,1.654-3.938,1.754-3.16,4.433c0.847,2.92,3.502,0.815,5.397,1.821c0.313,0.863,0.699,1.929,1.179,3.254
					c-0.861,0.574-1.682,1.048-2.419,1.628c-1.925,1.514-1.767,3.108,0.405,4.125c0.438,0.205,0.963,0.258,1.456,0.312
					c1.551,0.173,2.624,0.991,2.4,2.564c-0.141,0.989-0.751,2.141-1.519,2.771c-2.625,2.16-2.763,2.212,0.196,4.003
					c1.913,1.157,2.027,2.826,2.247,4.888c-1.188,0.277-2.37,0.356-3.349,0.844c-0.796,0.396-1.783,1.225-1.88,1.967
					c-0.088,0.676,0.77,1.671,1.459,2.202c0.75,0.577,1.786,0.78,3.152,1.329c-0.367,2.168-0.658,4.253-1.081,6.311
					c-1.621,7.889-4.602,15.256-8.543,22.263c-1.126,2.002-2.387,3.615-4.982,3.435c-2.205-0.153-3.738,1.079-5.201,2.533
					c-3.31,3.289-6.625,6.575-10.03,9.763c-1.698,1.59-2.758,3.345-2.368,5.707c0.4,2.428-0.88,3.625-2.877,4.611
					c-14.006,6.921-28.765,10.689-44.387,9.198c-16.093-1.536-29.969-8.346-41.882-19.884c0.835-1.165,1.644-2.292,2.571-3.586
					c-0.886-1.151-1.638-2.223-2.485-3.213c-13.866-16.206-19.45-35.037-17.109-56.079c0.848-7.62,3.716-14.817,7.877-21.392
					c5.047-7.975,11.434-14.771,18.896-20.429c3.637-2.757,6.855-5.819,9.641-9.312c5.196-6.515,12.216-9.859,20.074-11.046
					c7.221-1.091,14.625-1.146,21.826,0.814c1.917,0.521,3.794,1.241,5.619,2.032c4.102,1.779,8.109,3.782,12.244,5.478
					C172.388,247.542,182.856,256.886,190.889,269.796z"/>
			</g>
		</g>
	</g>
	<g id="New_Atlantis_xA0_Image_1_">
		<g>
			<g>
				<path fill="none" d="M107,710c0-49.333,0-98.667,0-148c52,0,104,0,156,0c0,49.333,0,98.667,0,148C211,710,159,710,107,710z
					 M168.336,701.077c3.202,7.498,9.129,6.294,15.133,6.643c-0.339-4.173,2.2-4.74,5.405-4.877
					c10.821-0.465,20.905-3.668,30.371-8.81c8.589-4.666,15.735-11.054,21.447-18.974c3.301-4.576,6.364-9.268,10.395-13.336
					c2.745-2.771,4.899-6.29,6.712-9.788c4.33-8.355,3.883-17.329,2.362-26.245c-1.289-7.554-4.454-14.532-10.199-19.544
					c-5.594-4.878-9.682-10.946-14.768-16.179c-1.526-1.569-1.805-3.07-0.273-4.797c0.387-0.437,0.512-1.104,0.821-1.812
					c-1.726-1.61-3.136-3.32-4.899-4.506c-9.848-6.617-20.184-12.056-32.066-14.292c-9.269-1.744-18.433-2.205-27.673-0.238
					c-13.788,2.934-26.097,8.645-35.958,19.034c-2.172,2.288-4.636,4.298-6.9,6.502c-3.113,3.029-6.168,6.172-7.623,10.37
					c-2.34,6.755-4.454,13.587-6.726,20.365c-0.875,2.61-0.845,5.155-0.261,7.535c1.677,1.044,4.263-0.042,4.489,3.362
					c-1.74,0.725-3.625,1.51-5.589,2.327c0,1.483,0,2.927,0,4.539c0.774,0.194,1.457,0.233,1.999,0.529
					c1.213,0.662,3.247,1.338,3.359,2.213c0.315,2.448-2.152,1.807-3.573,2.318c-0.285,0.103-0.5,0.4-0.951,0.779
					c0.072,1.293,0.151,2.738,0.253,4.577c1.734,0,3.217-0.156,4.639,0.07c0.649,0.104,1.57,0.911,1.648,1.495
					c0.075,0.561-0.65,1.451-1.254,1.831c-1.044,0.658-2.267,1.034-3.577,1.598c0.61,1.825,1.076,3.218,1.585,4.74
					c1.241-0.344,2.329-0.833,3.436-0.881c0.665-0.029,1.728,0.485,1.939,1.021c0.218,0.553-0.161,1.712-0.667,2.102
					c-1.1,0.847-2.448,1.373-3.814,2.094c1.157,2.056,2.112,3.753,3.038,5.398c3.839-1.337,4.871-1.468,5.283-0.446
					c1.052,2.607-1.527,2.826-2.749,3.945c-0.219,0.2-0.282,0.569-0.34,0.693c0.464,2.545,2.026,3.463,4.353,3.2
					c2.349-0.265,4.354,0.604,5.866,2.221c4.63,4.948,9.176,9.995,9.715,17.469c1.305,0.75,2.706,1.556,4.186,2.405
					c0.755-0.983,1.238-1.903,1.984-2.487c0.553-0.434,1.626-0.782,2.137-0.521c0.479,0.244,0.764,1.364,0.696,2.056
					c-0.091,0.921-0.605,1.802-1.042,2.983c1.856,0.796,3.481,1.493,4.421,1.896c1.979-1.121,3.315-1.878,4.652-2.636
					c0.427,1.421,0.855,2.842,1.384,4.6C163.692,705.853,165.904,704.481,168.336,701.077z"/>
				<path fill-rule="evenodd" clip-rule="evenodd" d="M168.336,701.077c-2.433,3.404-4.645,4.775-7.193,2.546
					c-0.529-1.758-0.957-3.179-1.384-4.6c-1.337,0.758-2.674,1.515-4.652,2.636c-0.94-0.403-2.565-1.101-4.421-1.896
					c0.438-1.182,0.952-2.062,1.042-2.983c0.068-0.691-0.218-1.812-0.696-2.056c-0.51-0.262-1.584,0.087-2.137,0.521
					c-0.746,0.584-1.229,1.504-1.984,2.487c-1.479-0.85-2.88-1.655-4.186-2.405c-0.54-7.474-5.085-12.521-9.715-17.469
					c-1.513-1.617-3.518-2.485-5.866-2.221c-2.326,0.263-3.889-0.655-4.353-3.2c0.058-0.124,0.121-0.493,0.34-0.693
					c1.222-1.119,3.801-1.338,2.749-3.945c-0.413-1.021-1.444-0.891-5.283,0.446c-0.926-1.646-1.881-3.343-3.038-5.398
					c1.366-0.721,2.714-1.247,3.814-2.094c0.506-0.39,0.885-1.549,0.667-2.102c-0.211-0.536-1.274-1.051-1.939-1.021
					c-1.107,0.048-2.195,0.537-3.436,0.881c-0.509-1.522-0.975-2.915-1.585-4.74c1.311-0.563,2.533-0.939,3.577-1.598
					c0.604-0.38,1.329-1.271,1.254-1.831c-0.078-0.584-0.999-1.392-1.648-1.495c-1.422-0.227-2.905-0.07-4.639-0.07
					c-0.102-1.839-0.182-3.284-0.253-4.577c0.451-0.379,0.666-0.677,0.951-0.779c1.421-0.512,3.888,0.13,3.573-2.318
					c-0.113-0.875-2.146-1.551-3.359-2.213c-0.542-0.296-1.224-0.335-1.999-0.529c0-1.612,0-3.056,0-4.539
					c1.964-0.817,3.85-1.603,5.589-2.327c-0.226-3.404-2.812-2.318-4.489-3.362c-0.584-2.38-0.614-4.925,0.261-7.535
					c2.272-6.778,4.386-13.61,6.726-20.365c1.455-4.198,4.51-7.341,7.623-10.37c2.265-2.204,4.729-4.214,6.9-6.502
					c9.861-10.39,22.17-16.101,35.958-19.034c9.24-1.967,18.404-1.506,27.673,0.238c11.882,2.236,22.219,7.675,32.066,14.292
					c1.763,1.186,3.173,2.896,4.899,4.506c-0.309,0.707-0.434,1.375-0.821,1.812c-1.532,1.727-1.253,3.228,0.273,4.797
					c5.086,5.232,9.174,11.301,14.768,16.179c5.746,5.012,8.91,11.99,10.199,19.544c1.521,8.916,1.968,17.89-2.362,26.245
					c-1.813,3.498-3.967,7.018-6.712,9.788c-4.031,4.068-7.094,8.76-10.395,13.336c-5.712,7.92-12.858,14.308-21.447,18.974
					c-9.465,5.142-19.549,8.345-30.371,8.81c-3.205,0.137-5.744,0.704-5.405,4.877C177.466,707.371,171.539,708.575,168.336,701.077
					z"/>
			</g>
		</g>
	</g>
</g>
<g id="North_Atlantic_1_">
	<g id="New_York_xA0_Image_1_">
		<g>
			<g>
				<path fill="none" d="M449,599c0-49.667,0-99.333,0-149c48,0,96,0,144,0c0,49.667,0,99.333,0,149C545,599,497,599,449,599z
					 M579.392,488.36c-4.321-7.368-9.163-12.562-14.956-17.648c-9.767-8.575-22.111-12.02-33.551-17.184
					c-5.588-2.522-12.003-2.766-18.184-2.149c-9.676,0.963-18.503,3.872-25.103,11.671c-2.449,2.895-5.262,5.493-8.016,8.114
					c-4.814,4.583-10.114,8.723-14.499,13.678c-13.145,14.854-17.226,32.401-13.384,51.618c2.579,12.898,8.042,24.636,17.027,34.512
					c0.654,0.719,1.109,1.62,1.73,2.544c-0.756,1.306-1.457,2.515-2.112,3.646c27.076,27.833,69.146,22.7,89.29,7.854
					c-1.536-2.947-0.446-5.28,1.885-7.434c3.425-3.164,6.583-6.626,10.104-9.674c1.55-1.342,3.624-2.446,5.616-2.816
					c2.449-0.454,3.828-1.668,4.913-3.692c3.315-6.187,6.036-12.603,7.665-19.447c0.681-2.86,1.297-5.736,1.843-8.158
					c-1.495-2.134-4.808-0.854-4.76-3.811c0.049-3.073,3.177-1.648,4.738-3.076c0.241-2.023,0.483-3.819-2.394-4.929
					c-2.229-0.859-2.042-2.534,0.052-4.046c0.631-0.456,1.38-0.748,2.18-1.171c-0.392-1.506-0.716-2.755-1.039-3.998
					c-0.653-0.162-1.118-0.347-1.594-0.383c-1.368-0.103-2.959-0.196-2.965-1.906c-0.003-0.901,0.842-2.124,1.659-2.646
					c2.045-1.305,1.231-2.712,0.727-4.356c-0.82-0.104-1.512-0.061-2.091-0.295c-1.127-0.457-2.448-0.86-3.156-1.723
					c-0.292-0.355,0.535-2.157,1.288-2.749c2.449-1.926,1.191-3.365-0.246-4.931c-1.731-0.167-3.73,1.598-4.984-0.758
					C575.805,490.628,578.327,489.969,579.392,488.36z"/>
				<path fill-rule="evenodd" clip-rule="evenodd" d="M579.392,488.36c-1.065,1.608-3.587,2.268-2.316,4.656
					c1.253,2.355,3.253,0.591,4.984,0.758c1.437,1.565,2.694,3.005,0.246,4.931c-0.753,0.592-1.581,2.394-1.288,2.749
					c0.708,0.862,2.029,1.266,3.156,1.723c0.579,0.234,1.271,0.19,2.091,0.295c0.504,1.645,1.318,3.052-0.727,4.356
					c-0.817,0.521-1.662,1.744-1.659,2.646c0.005,1.71,1.597,1.804,2.965,1.906c0.476,0.036,0.94,0.221,1.594,0.383
					c0.323,1.243,0.647,2.492,1.039,3.998c-0.8,0.423-1.549,0.715-2.18,1.171c-2.094,1.512-2.28,3.187-0.052,4.046
					c2.877,1.109,2.635,2.905,2.394,4.929c-1.562,1.428-4.689,0.003-4.738,3.076c-0.048,2.956,3.266,1.677,4.76,3.811
					c-0.545,2.422-1.162,5.298-1.843,8.158c-1.629,6.845-4.35,13.261-7.665,19.447c-1.085,2.024-2.463,3.238-4.913,3.692
					c-1.992,0.37-4.066,1.475-5.616,2.816c-3.521,3.048-6.679,6.51-10.104,9.674c-2.331,2.153-3.42,4.486-1.885,7.434
					c-20.144,14.847-62.213,19.979-89.29-7.854c0.655-1.131,1.356-2.34,2.112-3.646c-0.621-0.924-1.076-1.825-1.73-2.544
					c-8.985-9.876-14.448-21.613-17.027-34.512c-3.842-19.217,0.239-36.765,13.384-51.618c4.384-4.955,9.684-9.095,14.499-13.678
					c2.754-2.621,5.567-5.22,8.016-8.114c6.599-7.799,15.426-10.708,25.103-11.671c6.181-0.616,12.596-0.373,18.184,2.149
					c11.44,5.164,23.784,8.608,33.551,17.184C570.229,475.798,575.071,480.992,579.392,488.36z"/>
			</g>
		</g>
	</g>
	<g id="Nova_Brasilia_xA0_Image_1_">
		<g>
			<g>
				<path d="M507,684c0-0.333,0-0.667,0-1c0.364-1.562,0.966-3.111,1.054-4.689c0.551-9.929,4.941-18.127,11.243-25.498
					c5.181-6.061,10.373-12.111,15.53-18.191c0.29-0.342,0.309-0.912,0.489-1.487c-0.646-1.089-1.304-2.197-2.241-3.776
					c3.447-2.681,6.772-5.266,10.182-7.918c0.923,1.406,1.408,2.548,2.248,3.284c0.596,0.523,1.672,0.5,2.534,0.721
					c0.179-0.885,0.673-1.855,0.463-2.635c-0.329-1.215-1.136-2.301-1.864-3.676c1.861-1.018,3.568-1.951,5.317-2.907
					c1.382,1.367,2.582,2.555,3.683,3.644c3.188-1.557,0.195-3.852,1.303-5.512c2.537-1.369,4.89-2.048,6.855,1.021
					c0.308,0.48,1.857,0.824,2.078,0.571c0.528-0.604,0.798-1.6,0.808-2.441c0.008-0.666-0.526-1.338-0.971-2.351
					c12.81-2.074,25.065-3.544,37.146,0.891c0.615,1.746-1.294,4.16,1.264,4.902c2.321,0.674,2.076-2.115,3.244-3.086
					c0.128-0.106,0.265-0.202,0.726-0.552c1.568,0.644,3.329,1.364,5.157,2.114c-0.438,0.795-0.869,1.226-0.88,1.668
					c-0.027,1.03,0.147,2.065,0.24,3.099c0.964-0.362,2.007-0.595,2.865-1.127c0.649-0.401,1.062-1.185,1.813-2.076
					c1.829,0.956,3.528,1.844,5.158,2.694c-0.35,1.965-3.292,3.372-0.325,5.459c1.454-1,2.901-1.995,4.602-3.166
					c1.322,1.138,2.542,2.187,3.789,3.26c-0.468,0.636-0.72,1.067-1.057,1.418c-0.895,0.928-1.539,2.06-0.351,2.968
					c0.559,0.428,1.812,0.168,2.669-0.071c0.896-0.25,1.694-0.849,2.832-1.453c1.317,1.466,2.521,2.805,3.703,4.122
					c-0.147,1.733-3.762,2.175-1.849,4.401c1.498,1.745,2.963-0.382,4.45-0.758c0.302-0.076,0.631-0.047,0.712-0.052
					c9.494,8.54,12.11,20.328,16.045,31.886c-4.681,2.506-5.03,6.726-4.833,11.247c0.145,3.323-0.16,6.67,0.08,9.981
					c0.11,1.533,0.629,3.457,1.681,4.418c2.365,2.161,2.45,4.65,1.831,7.299c-1.483,6.35-3.57,12.544-7.56,17.768
					c-9.38,12.276-19.875,23.263-34.875,28.815c-9.06,3.354-18.077,6.721-28.479,5.152c-0.452-3.935-3.327-4.529-6.813-4.722
					c-3.462-0.19-6.914-0.878-10.329-1.554c-10.875-2.153-20.159-7.625-28.67-14.416c-3.731-2.978-7.032-6.536-10.29-10.053
					c-2.359-2.547-3.996-5.815-6.525-8.144c-8-7.363-13.035-16.184-14.604-26.977C508.147,685.634,507.439,684.837,507,684z"/>
				<path fill-rule="evenodd" clip-rule="evenodd" fill="none" d="M507,684c0.439,0.837,1.147,1.634,1.275,2.516
					c1.568,10.793,6.603,19.613,14.604,26.977c2.529,2.328,4.167,5.597,6.525,8.144c3.257,3.517,6.558,7.075,10.29,10.053
					c8.511,6.791,17.796,12.263,28.67,14.416c3.415,0.676,6.867,1.363,10.329,1.554c3.487,0.192,6.362,0.787,6.813,4.722
					c10.401,1.568,19.418-1.799,28.479-5.152c15-5.553,25.496-16.539,34.875-28.815c3.99-5.224,6.077-11.418,7.56-17.768
					c0.619-2.648,0.534-5.138-1.831-7.299c-1.051-0.961-1.57-2.885-1.681-4.418c-0.239-3.312,0.065-6.658-0.08-9.981
					c-0.197-4.521,0.152-8.741,4.833-11.247c-3.935-11.558-6.552-23.346-16.045-31.886c-0.081,0.005-0.41-0.024-0.712,0.052
					c-1.487,0.376-2.952,2.503-4.45,0.758c-1.913-2.227,1.702-2.668,1.849-4.401c-1.183-1.317-2.386-2.656-3.703-4.122
					c-1.138,0.604-1.936,1.203-2.832,1.453c-0.857,0.239-2.11,0.499-2.669,0.071c-1.188-0.908-0.543-2.04,0.351-2.968
					c0.337-0.351,0.589-0.782,1.057-1.418c-1.247-1.073-2.467-2.122-3.789-3.26c-1.701,1.171-3.147,2.166-4.602,3.166
					c-2.967-2.087-0.025-3.494,0.325-5.459c-1.629-0.851-3.329-1.738-5.158-2.694c-0.752,0.892-1.165,1.675-1.813,2.076
					c-0.858,0.532-1.901,0.765-2.865,1.127c-0.093-1.033-0.267-2.068-0.24-3.099c0.012-0.442,0.442-0.873,0.88-1.668
					c-1.828-0.75-3.588-1.471-5.157-2.114c-0.46,0.35-0.597,0.445-0.726,0.552c-1.168,0.971-0.923,3.76-3.244,3.086
					c-2.559-0.742-0.649-3.156-1.264-4.902c-12.082-4.435-24.336-2.965-37.146-0.891c0.444,1.013,0.979,1.685,0.971,2.351
					c-0.01,0.842-0.279,1.837-0.808,2.441c-0.221,0.253-1.771-0.091-2.078-0.571c-1.965-3.068-4.318-2.39-6.855-1.021
					c-1.107,1.66,1.885,3.955-1.303,5.512c-1.101-1.089-2.301-2.276-3.683-3.644c-1.749,0.956-3.456,1.89-5.317,2.907
					c0.729,1.375,1.536,2.461,1.864,3.676c0.21,0.779-0.284,1.75-0.463,2.635c-0.862-0.221-1.938-0.197-2.534-0.721
					c-0.839-0.736-1.324-1.878-2.248-3.284c-3.41,2.652-6.735,5.237-10.182,7.918c0.937,1.579,1.595,2.688,2.241,3.776
					c-0.18,0.575-0.199,1.146-0.489,1.487c-5.158,6.08-10.35,12.131-15.53,18.191c-6.302,7.371-10.692,15.569-11.243,25.498
					c-0.087,1.578-0.689,3.127-1.054,4.689c0-25,0-50,0-75c50.667,0,101.333,0,152,0c0,49,0,98,0,147c-50.667,0-101.333,0-152,0
					C507,731.333,507,707.667,507,684z"/>
			</g>
		</g>
	</g>
	<g id="Western_Ireland_xA0_Image_1_">
		<g>
			<g>
				<path fill="none" d="M590,525c0-49,0-98,0-147c52,0,104,0,156,0c0,49,0,98,0,147C694,525,642,525,590,525z M638.301,517.587
					c1.753-1.12,3.18-2.031,4.607-2.942c0.482,1.398,0.965,2.797,1.648,4.777c0.861,0.274,2.414,0.768,3.944,1.255
					c0.806-1.369,1.521-2.584,2.236-3.799c0.457,0.267,0.913,0.533,1.37,0.8c0.632,1.239,1.263,2.479,2.079,4.079
					c3.803,0.574,7.847,1.186,12.263,1.853c0.026-3.854,2.056-4.825,5.465-5.025c11.096-0.653,21.637-3.707,31.28-9.207
					c7.831-4.466,14.545-10.412,20.025-17.653c3.101-4.097,5.795-8.604,9.397-12.2c8.693-8.681,12.414-19.178,11.897-31.104
					c-0.403-9.315-3.479-17.928-9.802-25.062c-5.273-5.95-10.685-11.778-15.99-17.701c-0.737-0.822-1.213-1.878-1.808-2.822
					c0.883-1.3,1.607-2.365,2.713-3.993c-3.544-2.564-6.944-5.171-10.49-7.561c-9.83-6.623-20.758-10.698-32.447-11.9
					c-13.011-1.338-26.009-0.585-37.971,5.597c-5.594,2.892-11.257,5.905-16.183,9.765c-5.077,3.978-9.402,8.95-13.837,13.692
					c-1.787,1.911-3.484,4.186-4.371,6.606c-2.797,7.639-5.326,15.385-7.681,23.173c-1.121,3.707-0.323,4.701,3.445,6.573
					c0.518,0.258,1.238,0.976,1.17,1.354c-0.123,0.682-0.656,1.64-1.227,1.82c-1.372,0.434-2.865,0.483-4.405,0.702
					c0,2.019,0,3.771,0,5.669c0.852,0.141,1.481,0.279,2.118,0.343c1.483,0.146,3.334,0.043,3.368,2.076
					c0.036,2.14-1.941,1.791-3.338,2.076c-0.245,0.05-0.42,0.442-0.812,0.885c0.13,1.424,0.278,3.032,0.445,4.855
					c1.463-0.111,2.652-0.45,3.701-0.2c0.772,0.184,1.603,1.033,1.926,1.792c0.155,0.364-0.673,1.46-1.285,1.769
					c-0.979,0.494-2.148,0.608-3.586,0.971c0.591,1.745,1.103,3.254,1.543,4.557c2.157,0.84,4.981-2.36,6.129,1.815
					c-1.498,1.097-3.024,2.213-4.743,3.471c0.968,1.795,1.816,3.365,2.501,4.636c2.259,0.727,4.513-2.328,6.32,1.165
					c-1.364,1.087-2.716,2.163-4.115,3.278c0.801,2.125,1.676,3.828,4.628,3.313c1.311-0.229,3.076,0.321,4.194,1.128
					c5.422,3.912,8.981,9.441,11.176,15.537c0.925,2.569,1.878,4.352,4.319,5.788c0.683-1.009,1.188-2.074,1.99-2.822
					c0.483-0.45,1.476-0.637,2.146-0.497c0.397,0.083,0.884,1.045,0.857,1.588c-0.062,1.253-0.414,2.49-0.669,3.852
					C636.018,516.474,637.326,517.111,638.301,517.587z"/>
				<path fill-rule="evenodd" clip-rule="evenodd" d="M638.301,517.587c-0.975-0.476-2.283-1.113-3.854-1.88
					c0.256-1.361,0.607-2.599,0.669-3.852c0.027-0.543-0.46-1.505-0.857-1.588c-0.671-0.14-1.664,0.047-2.146,0.497
					c-0.802,0.748-1.308,1.813-1.99,2.822c-2.441-1.437-3.394-3.219-4.319-5.788c-2.195-6.096-5.754-11.625-11.176-15.537
					c-1.118-0.807-2.883-1.356-4.194-1.128c-2.952,0.515-3.827-1.188-4.628-3.313c1.399-1.115,2.75-2.191,4.115-3.278
					c-1.808-3.493-4.062-0.438-6.32-1.165c-0.686-1.271-1.533-2.841-2.501-4.636c1.718-1.258,3.245-2.374,4.743-3.471
					c-1.148-4.176-3.973-0.976-6.129-1.815c-0.441-1.303-0.952-2.812-1.543-4.557c1.438-0.362,2.608-0.477,3.586-0.971
					c0.612-0.309,1.44-1.404,1.285-1.769c-0.323-0.759-1.154-1.608-1.926-1.792c-1.049-0.25-2.237,0.089-3.701,0.2
					c-0.167-1.823-0.314-3.432-0.445-4.855c0.392-0.442,0.567-0.835,0.812-0.885c1.397-0.285,3.374,0.063,3.338-2.076
					c-0.034-2.033-1.885-1.93-3.368-2.076c-0.637-0.063-1.266-0.202-2.118-0.343c0-1.898,0-3.65,0-5.669
					c1.54-0.219,3.033-0.269,4.405-0.702c0.571-0.181,1.104-1.139,1.227-1.82c0.068-0.379-0.652-1.097-1.17-1.354
					c-3.768-1.872-4.566-2.866-3.445-6.573c2.354-7.788,4.884-15.534,7.681-23.173c0.886-2.421,2.583-4.695,4.371-6.606
					c4.435-4.742,8.76-9.715,13.837-13.692c4.926-3.859,10.588-6.873,16.183-9.765c11.962-6.182,24.96-6.935,37.971-5.597
					c11.688,1.202,22.617,5.277,32.447,11.9c3.546,2.39,6.945,4.996,10.49,7.561c-1.106,1.628-1.83,2.693-2.713,3.993
					c0.595,0.944,1.071,2,1.808,2.822c5.305,5.923,10.717,11.751,15.99,17.701c6.323,7.135,9.399,15.747,9.802,25.062
					c0.517,11.926-3.205,22.423-11.897,31.104c-3.602,3.597-6.296,8.104-9.397,12.2c-5.48,7.241-12.195,13.188-20.025,17.653
					c-9.644,5.5-20.184,8.554-31.28,9.207c-3.41,0.2-5.439,1.171-5.465,5.025c-4.416-0.667-8.46-1.278-12.263-1.853
					c-0.816-1.601-1.447-2.84-2.079-4.079c-0.457-0.267-0.913-0.533-1.37-0.8c-0.715,1.215-1.43,2.43-2.236,3.799
					c-1.53-0.487-3.083-0.98-3.944-1.255c-0.683-1.98-1.166-3.379-1.648-4.777C641.481,515.556,640.054,516.467,638.301,517.587z"/>
			</g>
		</g>
	</g>
</g>
<g id="South_Atlantic_1_">
	<g id="Neo_Paulo_xA0_Image_1_">
		<g>
			<g>
				<path fill="none" d="M561,1022c0-48.667,0-97.333,0-146c51,0,102,0,153,0c0,48.667,0,97.333,0,146C663,1022,612,1022,561,1022z
					 M640.457,1020.641c2.919,0,5.624,0.342,8.204-0.081c3.748-0.614,7.445-1.646,11.095-2.735
					c11.267-3.36,21.811-8.115,30.176-16.699c3.595-3.689,7.046-7.525,10.438-11.403c6.657-7.611,10.378-16.431,10.862-26.665
					c-3.384-2.127-3.848-5.232-3.653-8.763c0.22-3.985-0.06-7.998,0.172-11.982c0.089-1.531,0.562-3.5,1.607-4.426
					c2.471-2.189,2.46-4.412,1.294-7.101c-0.458-1.056-0.575-2.255-0.981-3.338c-3.26-8.69-6.137-17.603-13.667-24.17
					c-0.933,0.458-1.92,1.12-3.006,1.409c-0.657,0.175-1.795,0.008-2.117-0.438c-0.33-0.458-0.204-1.721,0.215-2.137
					c0.768-0.762,1.896-1.16,2.95-1.753c-2.462-2.141-3.96-3.442-5.417-4.709c-0.432,0.226-0.734,0.361-1.014,0.533
					c-1.314,0.807-2.512,2.853-4.226,1.081c-1.492-1.541,0.53-2.6,1.084-3.855c0.112-0.254-0.044-0.626-0.119-1.367
					c-1.072-0.745-2.371-1.647-3.626-2.521c-0.684,0.604-1.05,0.937-1.427,1.257c-1.046,0.891-1.817,2.901-3.597,1.402
					c-1.77-1.491,0.172-2.59,0.726-3.827c0.113-0.251-0.039-0.62-0.091-1.168c-1.391-0.875-2.899-1.825-4.104-2.583
					c-2.266,0.851-2.491,4.654-6.023,2.908c0.356-1.63,0.685-3.134,1.037-4.74c-1.881-0.831-3.523-1.558-5.135-2.27
					c-1.397,1.433-0.669,4.808-3.521,4.163c-2.656-0.601-0.556-3.169-1.346-5.294c-11.916-3.787-24.21-2.192-36.337-1.148
					c-0.763,2.229,1.977,4.453-2.092,6.126c-0.648-1.047-1.515-2.446-2.325-3.753c-1.911,0.439-3.493,0.803-4.805,1.104
					c-1.077,1.894,1.66,4.07-0.812,5.231c-2.397,1.125-2.524-2.172-4.8-2.742c-1.307,0.684-3.004,1.571-4.76,2.489
					c0.728,1.751,1.4,3.081,1.801,4.489c0.137,0.479-0.255,1.386-0.686,1.67c-0.419,0.275-1.423,0.25-1.779-0.074
					c-1.075-0.978-1.96-2.164-3.035-3.402c-3.552,2.445-7.319,4.256-9.416,7.953c0.672,1.525,1.25,2.837,1.875,4.256
					c-5.748,6.724-11.333,13.312-16.978,19.848c-7.011,8.117-11.214,17.569-10.778,28.22c0.383,9.345,3.157,18.318,9.698,25.597
					c2.982,3.317,6.222,6.45,8.846,10.033c3.957,5.401,8.184,10.394,13.612,14.438c10.979,8.178,22.641,14.387,36.684,15.274
					C634.91,1015.214,639.454,1015.106,640.457,1020.641z"/>
				<path fill-rule="evenodd" clip-rule="evenodd" d="M640.457,1020.641c-1.003-5.534-5.547-5.427-9.298-5.664
					c-14.043-0.888-25.705-7.097-36.684-15.274c-5.429-4.044-9.655-9.036-13.612-14.438c-2.624-3.583-5.864-6.716-8.846-10.033
					c-6.541-7.278-9.315-16.252-9.698-25.597c-0.437-10.65,3.767-20.103,10.778-28.22c5.646-6.536,11.23-13.124,16.978-19.848
					c-0.625-1.419-1.203-2.73-1.875-4.256c2.097-3.697,5.863-5.508,9.416-7.953c1.075,1.238,1.959,2.425,3.035,3.402
					c0.356,0.324,1.359,0.35,1.779,0.074c0.431-0.284,0.823-1.191,0.686-1.67c-0.401-1.408-1.073-2.738-1.801-4.489
					c1.755-0.918,3.453-1.806,4.76-2.489c2.276,0.57,2.403,3.867,4.8,2.742c2.472-1.161-0.265-3.338,0.812-5.231
					c1.312-0.301,2.894-0.664,4.805-1.104c0.81,1.307,1.676,2.706,2.325,3.753c4.069-1.673,1.33-3.897,2.092-6.126
					c12.127-1.044,24.421-2.639,36.337,1.148c0.79,2.125-1.31,4.693,1.346,5.294c2.852,0.645,2.124-2.73,3.521-4.163
					c1.612,0.712,3.254,1.438,5.135,2.27c-0.352,1.606-0.68,3.11-1.037,4.74c3.533,1.746,3.757-2.058,6.023-2.908
					c1.204,0.758,2.713,1.708,4.104,2.583c0.052,0.548,0.204,0.917,0.091,1.168c-0.554,1.237-2.496,2.336-0.726,3.827
					c1.78,1.499,2.551-0.512,3.597-1.402c0.377-0.32,0.743-0.653,1.427-1.257c1.255,0.873,2.554,1.775,3.626,2.521
					c0.075,0.741,0.231,1.113,0.119,1.367c-0.555,1.256-2.576,2.314-1.084,3.855c1.714,1.771,2.912-0.274,4.226-1.081
					c0.28-0.172,0.582-0.308,1.014-0.533c1.457,1.267,2.955,2.568,5.417,4.709c-1.054,0.593-2.183,0.991-2.95,1.753
					c-0.418,0.416-0.544,1.679-0.215,2.137c0.322,0.446,1.46,0.613,2.117,0.438c1.086-0.289,2.073-0.951,3.006-1.409
					c7.531,6.567,10.407,15.479,13.667,24.17c0.406,1.083,0.523,2.282,0.981,3.338c1.166,2.688,1.177,4.911-1.294,7.101
					c-1.045,0.926-1.518,2.895-1.607,4.426c-0.232,3.984,0.048,7.997-0.172,11.982c-0.195,3.53,0.27,6.636,3.653,8.763
					c-0.484,10.234-4.205,19.054-10.862,26.665c-3.392,3.878-6.842,7.714-10.438,11.403c-8.366,8.584-18.909,13.339-30.176,16.699
					c-3.649,1.089-7.347,2.121-11.095,2.735C646.081,1020.982,643.376,1020.641,640.457,1020.641z"/>
			</g>
		</g>
	</g>
	<g id="The_Ivory_Reef_xA0_Image_1_">
		<g>
			<g>
				<path fill="none" d="M742,985c0-49.667,0-99.333,0-149c48,0,96,0,144,0c0,49.667,0,99.333,0,149C838,985,790,985,742,985z
					 M872.595,873.896c-4.312-7.417-10.383-13.479-17.14-18.958c-9.092-7.37-20.255-10.665-30.735-15.104
					c-8.69-3.681-18.2-3.511-27.41-0.675c-6.46,1.989-12.285,4.938-16.626,10.419c-2.044,2.581-4.304,5.125-6.912,7.098
					c-6.816,5.158-13.025,10.858-18.146,17.73c-5.984,8.031-10.179,16.929-11.196,26.87c-2.158,21.093,3.883,39.783,17.694,55.927
					c0.726,0.849,1.283,1.842,1.928,2.782c-1.027,1.16-1.865,2.106-2.767,3.126c8.665,8.241,18.265,14.363,29.531,17.578
					c13.955,3.981,27.901,3.347,41.745-0.672c6.379-1.852,12.516-4.298,17.956-7.745c0.229-6.238,0.238-6.23,4.769-10.587
					c2.162-2.077,4.296-4.185,6.422-6.299c2.013-2.002,3.93-3.897,7.15-4.085c1.38-0.08,3.18-1.344,3.924-2.587
					c4.999-8.354,8.324-17.373,9.887-27.004c0.128-0.79-0.081-1.635-0.128-2.374c-3.618-1.712-4.554-2.478-4.256-3.621
					c0.556-2.144,2.588-1.7,4.067-2.234c0.295-0.106,0.534-0.372,0.922-0.655c0.678-2.288,0.491-3.874-2.488-4.694
					c-2.455-0.676-2.458-2.255-0.347-3.849c0.64-0.483,1.425-0.773,2.154-1.157c0.081-2.372,0.466-4.588-2.888-4.827
					c-0.929-0.065-1.791-1.07-2.683-1.645c0.617-0.889,1.16-1.845,1.881-2.64c0.4-0.441,1.097-0.612,1.592-0.87
					c0.209-2.676-0.758-3.888-3.387-3.965c-0.942-0.027-2.289-0.811-2.688-1.624c-0.733-1.496,0.523-2.358,1.793-3.003
					c0.416-0.211,0.729-0.621,1.268-1.098c-0.673-1.303-1.327-2.57-1.99-3.854c-1.991,0.722-3.732,1.685-5.096-0.524
					C868.73,876.383,872.229,875.996,872.595,873.896z"/>
				<path fill-rule="evenodd" clip-rule="evenodd" d="M872.595,873.896c-0.365,2.1-3.865,2.486-2.201,5.181
					c1.364,2.209,3.105,1.246,5.096,0.524c0.663,1.283,1.317,2.551,1.99,3.854c-0.538,0.477-0.852,0.887-1.268,1.098
					c-1.27,0.645-2.526,1.507-1.793,3.003c0.398,0.813,1.746,1.597,2.688,1.624c2.629,0.077,3.596,1.289,3.387,3.965
					c-0.495,0.258-1.191,0.429-1.592,0.87c-0.721,0.795-1.264,1.751-1.881,2.64c0.892,0.574,1.754,1.579,2.683,1.645
					c3.354,0.239,2.969,2.455,2.888,4.827c-0.729,0.384-1.514,0.674-2.154,1.157c-2.112,1.594-2.108,3.173,0.347,3.849
					c2.979,0.82,3.166,2.406,2.488,4.694c-0.388,0.283-0.626,0.549-0.922,0.655c-1.479,0.534-3.511,0.091-4.067,2.234
					c-0.297,1.144,0.639,1.909,4.256,3.621c0.047,0.739,0.256,1.584,0.128,2.374c-1.563,9.631-4.889,18.65-9.887,27.004
					c-0.744,1.243-2.544,2.507-3.924,2.587c-3.22,0.188-5.137,2.083-7.15,4.085c-2.126,2.114-4.261,4.222-6.422,6.299
					c-4.531,4.356-4.54,4.349-4.769,10.587c-5.439,3.447-11.576,5.894-17.956,7.745c-13.843,4.019-27.79,4.653-41.745,0.672
					c-11.266-3.215-20.866-9.337-29.531-17.578c0.902-1.02,1.74-1.966,2.767-3.126c-0.646-0.94-1.203-1.934-1.928-2.782
					c-13.811-16.144-19.852-34.834-17.694-55.927c1.017-9.941,5.212-18.839,11.196-26.87c5.121-6.872,11.331-12.572,18.146-17.73
					c2.607-1.973,4.868-4.517,6.912-7.098c4.341-5.481,10.166-8.43,16.626-10.419c9.209-2.836,18.72-3.006,27.41,0.675
					c10.48,4.439,21.644,7.734,30.735,15.104C862.212,860.417,868.283,866.479,872.595,873.896z"/>
			</g>
		</g>
	</g>
</g>
<g id="Indian_1_">
	<g id="Akara_xA0_Image_1_">
		<g>
			<g>
				<path fill="none" d="M1467,1179c0-48.667,0-97.333,0-146c51,0,102,0,153,0c0,48.667,0,97.333,0,146
					C1569,1179,1518,1179,1467,1179z M1496.176,1058.195c-2.936,3.49-5.641,6.641-8.271,9.851
					c-4.42,5.393-9.107,10.604-13.104,16.296c-4.698,6.691-6.993,14.514-6.511,22.619c0.434,7.284,1.984,14.755,6.527,20.667
					c6.852,8.921,14.26,17.438,21.785,25.808c2.381,2.65,5.984,4.167,8.867,6.409c9.07,7.049,19.449,10.511,30.729,11.961
					c3.986,0.513,9.062-0.292,10.208,5.256c4.95,0.11,9.585,0.986,14.086-0.837c1.832-0.742,3.897-0.891,5.765-1.566
					c9.526-3.452,19.223-6.635,26.663-14.028c4.003-3.978,7.911-8.053,11.804-12.141c7.479-7.858,11.844-17.122,12.572-28.272
					c-3.771-2.328-3.874-6.08-3.682-10.025c0.163-3.324,0.151-6.664,0.037-9.99c-0.084-2.464,0.307-4.604,2.357-6.236
					c1.235-0.982,1.957-2.188,1.426-3.919c-3.358-10.937-6.737-21.853-15.311-30.087c-1.227,0.642-2.361,1.37-3.6,1.812
					c-0.459,0.163-1.391-0.187-1.684-0.602c-0.294-0.416-0.299-1.368-0.008-1.797c0.684-1.007,1.621-1.841,2.498-2.79
					c-1.781-1.51-3.28-2.781-4.636-3.931c-2.058,0.588-3.571,3.454-5.928,0.597c0.673-1.293,1.315-2.525,2.01-3.858
					c-1.372-1.139-2.496-2.071-3.731-3.097c-1.282,1.065-2.352,2.095-3.573,2.891c-0.421,0.273-1.386,0.18-1.798-0.139
					c-0.389-0.299-0.641-1.205-0.482-1.689c0.334-1.017,0.977-1.933,1.575-3.044c-1.839-1.106-3.358-2.021-4.775-2.873
					c-1.466,1.454-2.706,2.684-3.817,3.784c-3.513-1.799-0.809-3.65-0.754-5.636c-1.743-0.707-3.543-1.436-5.276-2.138
					c-1.425,1.452-0.665,4.835-3.624,4.099c-2.64-0.657-0.291-3.252-1.578-5.438c-11.738-3.41-24.009-2.095-36.234-0.899
					c-0.284,2.266,1.866,4.119-1.039,5.805c-1.154-1.095-2.403-2.28-3.82-3.625c-1.426,0.451-2.959,0.937-4.253,1.346
					c-0.812,1.926,1.792,4.128-0.834,5.186c-2.126,0.857-2.437-1.782-3.766-2.564c-0.138-0.081-0.319-0.09-0.938-0.253
					c-1.381,0.741-3.056,1.64-4.621,2.48c0.731,1.872,1.379,3.212,1.739,4.625c0.118,0.464-0.369,1.361-0.826,1.613
					c-0.443,0.244-1.431,0.143-1.781-0.207c-1.014-1.01-1.827-2.221-2.901-3.585c-3.39,2.784-7.361,4.385-9.545,8.31
					C1494.788,1055.592,1495.396,1056.734,1496.176,1058.195z"/>
				<path fill-rule="evenodd" clip-rule="evenodd" d="M1496.176,1058.195c-0.779-1.461-1.388-2.604-2.055-3.855
					c2.184-3.925,6.155-5.525,9.545-8.31c1.074,1.364,1.888,2.575,2.901,3.585c0.351,0.35,1.338,0.451,1.781,0.207
					c0.457-0.252,0.944-1.149,0.826-1.613c-0.36-1.413-1.008-2.753-1.739-4.625c1.565-0.841,3.24-1.739,4.621-2.48
					c0.619,0.163,0.801,0.172,0.938,0.253c1.329,0.782,1.64,3.422,3.766,2.564c2.626-1.058,0.021-3.26,0.834-5.186
					c1.294-0.409,2.827-0.895,4.253-1.346c1.417,1.345,2.666,2.53,3.82,3.625c2.905-1.686,0.755-3.539,1.039-5.805
					c12.226-1.195,24.496-2.511,36.234,0.899c1.287,2.187-1.062,4.781,1.578,5.438c2.959,0.736,2.199-2.646,3.624-4.099
					c1.733,0.702,3.533,1.431,5.276,2.138c-0.055,1.985-2.759,3.837,0.754,5.636c1.111-1.101,2.352-2.33,3.817-3.784
					c1.417,0.853,2.937,1.767,4.775,2.873c-0.599,1.111-1.241,2.027-1.575,3.044c-0.158,0.484,0.094,1.391,0.482,1.689
					c0.412,0.318,1.377,0.412,1.798,0.139c1.222-0.796,2.291-1.825,3.573-2.891c1.235,1.025,2.359,1.958,3.731,3.097
					c-0.694,1.333-1.337,2.565-2.01,3.858c2.356,2.857,3.87-0.009,5.928-0.597c1.355,1.149,2.854,2.421,4.636,3.931
					c-0.877,0.949-1.814,1.783-2.498,2.79c-0.291,0.429-0.286,1.381,0.008,1.797c0.293,0.415,1.225,0.765,1.684,0.602
					c1.238-0.441,2.373-1.17,3.6-1.812c8.573,8.234,11.952,19.15,15.311,30.087c0.531,1.731-0.19,2.937-1.426,3.919
					c-2.051,1.632-2.441,3.772-2.357,6.236c0.114,3.326,0.126,6.666-0.037,9.99c-0.192,3.945-0.09,7.697,3.682,10.025
					c-0.729,11.15-5.093,20.414-12.572,28.272c-3.893,4.088-7.801,8.163-11.804,12.141c-7.44,7.394-17.137,10.576-26.663,14.028
					c-1.867,0.676-3.933,0.824-5.765,1.566c-4.501,1.823-9.136,0.947-14.086,0.837c-1.146-5.548-6.222-4.743-10.208-5.256
					c-11.279-1.45-21.658-4.912-30.729-11.961c-2.883-2.242-6.486-3.759-8.867-6.409c-7.525-8.37-14.934-16.887-21.785-25.808
					c-4.543-5.912-6.094-13.383-6.527-20.667c-0.482-8.105,1.812-15.928,6.511-22.619c3.997-5.692,8.685-10.903,13.104-16.296
					C1490.535,1064.836,1493.24,1061.686,1496.176,1058.195z"/>
			</g>
		</g>
	</g>
	<g id="South_Ceylon_xA0_Image_1_">
		<g>
			<g>
				<path fill="none" d="M1350,910c0-50,0-100,0-150c48,0,96,0,144,0c0,50,0,100,0,150C1446,910,1398,910,1350,910z
					 M1369.443,887.583c25.74,27.068,67.012,24.033,89.404,8.233c-1.718-3.629,0.354-6.116,2.962-8.515
					c3.063-2.817,5.857-5.941,9.03-8.622c1.565-1.322,3.638-2.393,5.632-2.764c2.247-0.418,3.647-1.402,4.585-3.316
					c1.757-3.58,3.738-7.073,5.187-10.774c2.236-5.715,3.896-11.622,4.438-17.656c-0.446-0.372-0.666-0.687-0.953-0.771
					c-1.572-0.462-3.625-0.556-3.613-2.736c0.014-2.482,2.344-1.751,3.783-2.235c0.282-0.095,0.485-0.424,0.832-0.743
					c0.227-1.873,0.676-3.564-1.902-4.821c-2.832-1.38-2.708-2.259,0.269-4.235c1.38-0.916,1.876-2.07,1.356-3.324
					c-0.355-0.858-1.543-1.396-2.408-2.006c-0.236-0.167-0.726,0.03-0.967-0.134c-0.766-0.522-2.086-1.166-2.061-1.709
					c0.045-0.924,0.847-1.898,1.528-2.678c0.478-0.545,1.284-0.802,2.071-1.261c-0.594-1.454-1.079-2.639-1.197-2.928
					c-2.24-0.825-4.137-0.954-4.992-1.965c-1.541-1.82,0.59-2.739,1.649-3.949c1.423-1.625,0.597-3.036-0.978-4.295
					c-2.262,0.816-4.592,1.516-5.289-2.309c0.877-0.918,1.859-1.946,2.99-3.129c-8.246-12.581-18.533-22.385-32.568-27.853
					c-2.787-1.086-5.79-1.84-8.292-3.394c-8.518-5.289-17.874-6.168-27.438-5.328c-9.201,0.808-17.373,4.151-23.652,11.405
					c-2.694,3.114-5.649,6.081-8.852,8.66c-7.05,5.678-13.615,11.821-18.574,19.401c-7.406,11.318-10.699,23.675-9.423,37.37
					c1.419,15.226,6.747,28.674,16.288,40.536c1.227,1.525,2.396,3.095,3.639,4.703
					C1370.99,885.628,1370.288,886.516,1369.443,887.583z"/>
				<path fill-rule="evenodd" clip-rule="evenodd" d="M1369.443,887.583c0.845-1.067,1.547-1.955,2.484-3.141
					c-1.242-1.608-2.412-3.178-3.639-4.703c-9.541-11.862-14.869-25.311-16.288-40.536c-1.276-13.695,2.017-26.052,9.423-37.37
					c4.959-7.58,11.524-13.724,18.574-19.401c3.202-2.579,6.157-5.546,8.852-8.66c6.279-7.254,14.451-10.598,23.652-11.405
					c9.564-0.84,18.921,0.039,27.438,5.328c2.502,1.554,5.505,2.308,8.292,3.394c14.035,5.468,24.322,15.271,32.568,27.853
					c-1.131,1.183-2.113,2.211-2.99,3.129c0.697,3.824,3.027,3.125,5.289,2.309c1.574,1.259,2.4,2.67,0.978,4.295
					c-1.06,1.21-3.19,2.129-1.649,3.949c0.855,1.011,2.752,1.14,4.992,1.965c0.118,0.289,0.604,1.474,1.197,2.928
					c-0.787,0.459-1.594,0.716-2.071,1.261c-0.682,0.779-1.483,1.754-1.528,2.678c-0.025,0.543,1.295,1.187,2.061,1.709
					c0.241,0.164,0.73-0.033,0.967,0.134c0.865,0.61,2.053,1.147,2.408,2.006c0.52,1.254,0.023,2.408-1.356,3.324
					c-2.977,1.977-3.101,2.855-0.269,4.235c2.578,1.257,2.129,2.948,1.902,4.821c-0.347,0.319-0.55,0.648-0.832,0.743
					c-1.439,0.484-3.77-0.247-3.783,2.235c-0.012,2.181,2.041,2.274,3.613,2.736c0.287,0.085,0.507,0.399,0.953,0.771
					c-0.542,6.034-2.202,11.941-4.438,17.656c-1.448,3.701-3.43,7.194-5.187,10.774c-0.938,1.914-2.338,2.898-4.585,3.316
					c-1.994,0.371-4.066,1.441-5.632,2.764c-3.173,2.681-5.967,5.805-9.03,8.622c-2.607,2.398-4.68,4.886-2.962,8.515
					C1436.455,911.616,1395.184,914.651,1369.443,887.583z"/>
			</g>
		</g>
	</g>
	<g id="Microcorp_xA0_Image_1_">
		<g>
			<g>
				<path fill="none" d="M1313,1083c0-49,0-98,0-147c52,0,104,0,156,0c0,49,0,98,0,147C1417,1083,1365,1083,1313,1083z
					 M1389.266,1081.644c0.135-4.134,2.352-4.907,5.67-5.096c4.287-0.244,8.614-0.945,12.777-2.016
					c15.977-4.109,29.277-12.378,39.011-25.933c3.483-4.85,6.632-9.903,11.026-14.105c4.665-4.462,7.777-10.191,8.697-16.526
					c0.775-5.334,1.201-10.83,0.25-16.314c-1.615-9.315-5.619-17.201-12.435-23.873c-5.196-5.086-9.828-10.747-14.732-16.175
					c0.944-1.748,1.63-3.015,2.382-4.404c-0.99-1.099-1.752-2.226-2.773-3.018c-1.83-1.419-3.811-2.644-5.737-3.936
					c-13.196-8.855-27.578-13.283-43.634-13.315c-14.021-0.028-26.446,4.087-38.137,11.294
					c-8.779,5.413-15.186,13.401-22.224,20.686c-1.327,1.373-2.105,3.391-2.798,5.238c-1.748,4.667-3.531,9.342-4.867,14.135
					c-1.223,4.386-3.621,8.688-1.935,13.774c0.581,0.079,1.282,0.003,1.784,0.282c0.9,0.501,1.682,1.216,2.514,1.842
					c-0.788,0.686-1.48,1.578-2.39,2c-0.973,0.45-2.151,0.457-3.413,0.689c0.098,2.046,0.181,3.8,0.262,5.509
					c1.643,0.22,2.852,0.204,3.916,0.589c0.649,0.235,1.457,1.068,1.487,1.669c0.027,0.529-0.827,1.342-1.469,1.609
					c-0.854,0.356-1.878,0.307-3.147,0.474c0.109,2.039,0.203,3.79,0.312,5.825c1.588-0.115,2.742-0.389,3.826-0.217
					c0.86,0.137,1.633,0.819,2.445,1.26c-0.473,0.769-0.779,1.783-1.459,2.245c-0.879,0.596-2.057,0.748-3.459,1.208
					c0.671,1.749,1.235,3.219,1.848,4.813c1.305-0.35,2.248-0.778,3.201-0.799c0.727-0.016,2.063,0.452,2.081,0.764
					c0.047,0.834-0.24,1.938-0.818,2.495c-0.889,0.854-2.132,1.341-3.477,2.131c0.987,1.866,1.827,3.452,2.548,4.814
					c2.088,0.652,4.52-2.157,5.455,0.74c0.297,0.922-1.811,2.619-2.993,4.196c0.384,1.613,1.524,2.865,3.736,2.714
					c2.907-0.198,5.337,0.987,7.103,3.049c4.178,4.88,8.533,9.733,9.145,16.678c1.293,0.912,2.609,1.841,3.828,2.7
					c0.393-0.277,0.552-0.347,0.65-0.466c0.98-1.202,1.404-3.547,3.523-2.753c2.432,0.91,0.486,2.822,0.455,4.302
					c-0.008,0.315,0.141,0.634,0.318,1.36c1.189,0.599,2.618,1.318,3.816,1.921c1.986-0.796,2.146-4.088,4.428-2.874
					c0.888,0.472,0.799,2.779,1.208,4.47c1.251,0.398,2.653,0.845,3.927,1.251c1.207-1.115,2.248-2.077,3.713-3.432
					c0.904,1.713,1.559,2.952,2.424,4.59C1380.724,1080.281,1384.612,1080.901,1389.266,1081.644z"/>
				<path fill-rule="evenodd" clip-rule="evenodd" d="M1389.266,1081.644c-4.653-0.742-8.542-1.362-12.129-1.935
					c-0.865-1.638-1.52-2.877-2.424-4.59c-1.465,1.354-2.506,2.316-3.713,3.432c-1.273-0.406-2.676-0.853-3.927-1.251
					c-0.409-1.69-0.32-3.998-1.208-4.47c-2.281-1.214-2.441,2.078-4.428,2.874c-1.198-0.603-2.627-1.322-3.816-1.921
					c-0.178-0.727-0.326-1.045-0.318-1.36c0.031-1.479,1.977-3.392-0.455-4.302c-2.119-0.794-2.543,1.551-3.523,2.753
					c-0.099,0.119-0.258,0.188-0.65,0.466c-1.219-0.859-2.535-1.788-3.828-2.7c-0.611-6.944-4.967-11.798-9.145-16.678
					c-1.766-2.062-4.195-3.247-7.103-3.049c-2.212,0.151-3.353-1.101-3.736-2.714c1.183-1.577,3.29-3.274,2.993-4.196
					c-0.936-2.897-3.367-0.088-5.455-0.74c-0.721-1.362-1.561-2.948-2.548-4.814c1.345-0.79,2.588-1.276,3.477-2.131
					c0.578-0.557,0.865-1.661,0.818-2.495c-0.018-0.312-1.354-0.779-2.081-0.764c-0.953,0.021-1.896,0.449-3.201,0.799
					c-0.612-1.595-1.177-3.064-1.848-4.813c1.402-0.46,2.58-0.612,3.459-1.208c0.68-0.462,0.986-1.477,1.459-2.245
					c-0.812-0.44-1.585-1.123-2.445-1.26c-1.084-0.172-2.238,0.102-3.826,0.217c-0.109-2.035-0.203-3.786-0.312-5.825
					c1.27-0.167,2.293-0.117,3.147-0.474c0.642-0.268,1.496-1.08,1.469-1.609c-0.03-0.601-0.838-1.434-1.487-1.669
					c-1.064-0.385-2.273-0.369-3.916-0.589c-0.081-1.709-0.164-3.463-0.262-5.509c1.262-0.232,2.44-0.239,3.413-0.689
					c0.909-0.422,1.602-1.314,2.39-2c-0.832-0.626-1.613-1.341-2.514-1.842c-0.502-0.279-1.203-0.203-1.784-0.282
					c-1.687-5.086,0.712-9.389,1.935-13.774c1.336-4.793,3.119-9.468,4.867-14.135c0.692-1.848,1.471-3.865,2.798-5.238
					c7.038-7.284,13.444-15.272,22.224-20.686c11.69-7.207,24.116-11.322,38.137-11.294c16.056,0.032,30.438,4.46,43.634,13.315
					c1.927,1.292,3.907,2.517,5.737,3.936c1.021,0.792,1.783,1.919,2.773,3.018c-0.752,1.39-1.438,2.656-2.382,4.404
					c4.904,5.428,9.536,11.089,14.732,16.175c6.815,6.672,10.819,14.558,12.435,23.873c0.951,5.484,0.525,10.98-0.25,16.314
					c-0.92,6.335-4.032,12.064-8.697,16.526c-4.395,4.202-7.543,9.256-11.026,14.105c-9.733,13.555-23.034,21.823-39.011,25.933
					c-4.163,1.07-8.49,1.771-12.777,2.016C1391.617,1076.736,1389.4,1077.51,1389.266,1081.644z"/>
			</g>
		</g>
	</g>
</g>
<g id="Asia_Pacific_1_">
	<g id="SungTzu_xA0_Image_1_">
		<g>
			<g>
				<path fill="none" d="M1838,802c0-49.333,0-98.667,0-148c52,0,104,0,156,0c0,49.333,0,98.667,0,148C1942,802,1890,802,1838,802z
					 M1914.157,800.104c0.395-3.442,2.077-4.307,5.056-4.67c9.723-1.186,19.247-3.144,28.196-7.611
					c9.741-4.864,17.79-11.528,24.217-20.221c3.742-5.062,7.087-10.372,11.653-14.852c4.463-4.377,7.405-9.998,8.284-16.184
					c0.88-6.192,1.538-12.542-0.067-18.778c-2.238-8.699-5.812-16.59-13.301-22.196c-1.704-1.275-3.073-3.034-4.467-4.681
					c-1.934-2.285-3.469-4.985-5.676-6.942c-2.933-2.601-3.859-5.132-1.117-8.399c-1.697-1.61-2.976-3.227-4.61-4.301
					c-6.39-4.196-12.691-8.681-20.138-10.822c-6.988-2.01-14.021-4.19-21.189-5.159c-8.438-1.141-16.863,0.238-25.068,2.799
					c-8.99,2.805-17.496,6.664-24.678,12.703c-5.714,4.805-10.762,10.42-15.926,15.847c-1.439,1.514-2.574,3.517-3.277,5.498
					c-2.495,7.04-4.72,14.176-7.101,21.258c-0.768,2.283-0.868,4.501-0.093,6.844c0.762,0.216,1.483,0.252,1.986,0.603
					c0.842,0.587,1.544,1.375,2.305,2.078c-0.83,0.693-1.573,1.56-2.515,2.026c-0.831,0.412-1.884,0.377-2.97,0.562
					c0,1.812,0,3.389,0,4.996c0.891,0.235,1.541,0.356,2.154,0.58c1.336,0.488,3.385,0.421,3.29,2.399
					c-0.099,2.077-2.108,1.638-3.509,1.902c-0.275,0.052-0.504,0.351-0.865,0.617c0.221,1.706,0.447,3.466,0.68,5.268
					c1.154-0.169,2.027-0.522,2.782-0.352c1.01,0.229,1.927,0.863,2.884,1.324c-0.606,0.858-1.068,1.901-1.861,2.521
					c-0.711,0.556-1.785,0.646-2.922,1.013c0.58,1.748,1.076,3.247,1.596,4.814c2.181-0.292,4.366-2.155,6.143,1.048
					c-1.614,1.166-3.153,2.277-5.021,3.626c0.907,1.775,1.788,3.501,2.712,5.31c1.297-0.473,2.352-1.036,3.464-1.197
					c0.682-0.098,2.021,0.34,2.069,0.678c0.114,0.809-0.111,1.946-0.658,2.5c-0.747,0.757-1.918,1.096-2.907,1.613
					c1.731,3.303,1.736,3.542,4.264,3.489c3.758-0.077,6.314,1.816,8.4,4.542c1.816,2.373,3.263,5.035,5.138,7.355
					c1.891,2.339,2.566,4.886,2.127,7.829c1.575,0.831,3.007,1.587,4.238,2.236c1.785-0.924,1.96-4.067,4.455-2.717
					c1.842,0.998,0.302,2.662,0.167,4.039c-0.03,0.305,0.146,0.629,0.288,1.177c1.311,0.696,2.76,1.467,4.197,2.23
					c1.168-1.277,2.222-2.431,3.15-3.446c3.135,0.868,1.381,3.146,1.77,4.491c3.139,2.564,5.482,1.204,7.769-1.832
					c1.038,1.893,1.791,3.266,2.685,4.895C1905.92,798.954,1909.673,799.479,1914.157,800.104z"/>
				<path fill-rule="evenodd" clip-rule="evenodd" d="M1914.157,800.104c-4.484-0.626-8.237-1.15-11.817-1.65
					c-0.894-1.629-1.646-3.002-2.685-4.895c-2.286,3.036-4.63,4.396-7.769,1.832c-0.389-1.345,1.365-3.623-1.77-4.491
					c-0.929,1.016-1.982,2.169-3.15,3.446c-1.438-0.764-2.887-1.534-4.197-2.23c-0.142-0.548-0.318-0.872-0.288-1.177
					c0.135-1.377,1.675-3.041-0.167-4.039c-2.495-1.351-2.67,1.793-4.455,2.717c-1.231-0.649-2.663-1.405-4.238-2.236
					c0.439-2.943-0.236-5.49-2.127-7.829c-1.875-2.32-3.321-4.982-5.138-7.355c-2.086-2.726-4.643-4.619-8.4-4.542
					c-2.527,0.053-2.532-0.187-4.264-3.489c0.989-0.518,2.16-0.856,2.907-1.613c0.547-0.554,0.772-1.691,0.658-2.5
					c-0.049-0.338-1.388-0.775-2.069-0.678c-1.112,0.161-2.167,0.725-3.464,1.197c-0.924-1.809-1.805-3.534-2.712-5.31
					c1.867-1.349,3.406-2.46,5.021-3.626c-1.776-3.203-3.962-1.34-6.143-1.048c-0.52-1.567-1.016-3.066-1.596-4.814
					c1.137-0.367,2.211-0.457,2.922-1.013c0.793-0.619,1.255-1.662,1.861-2.521c-0.957-0.461-1.874-1.096-2.884-1.324
					c-0.755-0.171-1.628,0.183-2.782,0.352c-0.232-1.802-0.459-3.562-0.68-5.268c0.361-0.267,0.59-0.565,0.865-0.617
					c1.4-0.265,3.41,0.175,3.509-1.902c0.095-1.979-1.954-1.911-3.29-2.399c-0.613-0.224-1.264-0.345-2.154-0.58
					c0-1.607,0-3.184,0-4.996c1.086-0.185,2.139-0.149,2.97-0.562c0.941-0.467,1.685-1.333,2.515-2.026
					c-0.761-0.703-1.463-1.491-2.305-2.078c-0.503-0.351-1.225-0.387-1.986-0.603c-0.775-2.343-0.675-4.561,0.093-6.844
					c2.381-7.082,4.605-14.218,7.101-21.258c0.703-1.981,1.838-3.984,3.277-5.498c5.164-5.427,10.212-11.042,15.926-15.847
					c7.182-6.039,15.688-9.898,24.678-12.703c8.205-2.561,16.63-3.939,25.068-2.799c7.168,0.969,14.201,3.149,21.189,5.159
					c7.446,2.142,13.748,6.626,20.138,10.822c1.635,1.074,2.913,2.69,4.61,4.301c-2.742,3.268-1.815,5.799,1.117,8.399
					c2.207,1.957,3.742,4.657,5.676,6.942c1.394,1.646,2.763,3.405,4.467,4.681c7.489,5.606,11.062,13.497,13.301,22.196
					c1.605,6.236,0.947,12.586,0.067,18.778c-0.879,6.186-3.821,11.807-8.284,16.184c-4.566,4.479-7.911,9.79-11.653,14.852
					c-6.427,8.692-14.476,15.356-24.217,20.221c-8.949,4.468-18.474,6.426-28.196,7.611
					C1916.234,795.798,1914.552,796.662,1914.157,800.104z"/>
			</g>
		</g>
	</g>
	<g id="Neo_Tokyo_xA0_Image_1_">
		<g>
			<g>
				<path fill="none" d="M1842,643c0-49.667,0-99.333,0-149c47.666,0,95.334,0,143,0c0,49.667,0,99.333,0,149
					C1937.334,643,1889.666,643,1842,643z M1972.383,532.413c-6.01-9.364-13.357-17.549-23.127-22.961
					c-7.801-4.322-16.168-7.626-24.294-11.357c-0.748-0.343-1.564-0.56-2.368-0.758c-6.513-1.604-13.094-1.885-19.758-1.173
					c-8.594,0.919-16.025,4.084-21.872,10.645c-2.529,2.838-5.114,5.645-7.877,8.251c-4.829,4.559-10.159,8.63-14.661,13.479
					c-9.381,10.107-14.59,22.319-15.019,36.076c-0.582,18.652,5.19,35.337,17.381,49.654c0.947,1.112,1.72,2.375,2.577,3.574
					c-0.806,1.302-1.467,2.369-2.088,3.373c24.453,25.984,64.56,25.062,89.162,8.297c-1.715-3.595,0.11-6.146,2.82-8.526
					c3.125-2.742,6.098-5.658,9.106-8.53c1.722-1.643,3.517-2.776,6.081-2.987c1.355-0.11,3.086-1.383,3.807-2.62
					c5.305-9.11,8.845-18.866,10.224-29.616c-0.878-0.327-1.698-0.477-2.326-0.905c-0.854-0.583-1.562-1.381-2.331-2.086
					c0.71-0.766,1.315-1.69,2.161-2.251c0.747-0.495,1.763-0.586,2.571-0.829c0.31-2.389,0.399-4.053-2.293-4.977
					c-2.465-0.846-2.492-1.943-0.111-3.737c1.866-1.406,2.033-2.812,1.242-4.644c-0.332-0.231-0.573-0.488-0.869-0.592
					c-4.727-1.656-4.807-1.922-1.609-5.516c1.421-1.598,0.961-3.683-1.001-4.278c-0.619-0.188-1.349,0.004-1.981-0.156
					c-2.293-0.58-2.852-2.197-1.32-3.969c0.592-0.686,1.457-1.135,2.322-1.785c-0.729-1.41-1.32-2.553-1.912-3.696
					c-1.813,0.191-3.592,2.165-4.957-0.337C1968.65,534.885,1971.342,534.107,1972.383,532.413z"/>
				<path fill-rule="evenodd" clip-rule="evenodd" d="M1972.383,532.413c-1.041,1.694-3.732,2.472-2.32,5.062
					c1.365,2.502,3.144,0.528,4.957,0.337c0.592,1.144,1.184,2.286,1.912,3.696c-0.865,0.65-1.73,1.1-2.322,1.785
					c-1.531,1.771-0.973,3.389,1.32,3.969c0.633,0.16,1.362-0.031,1.981,0.156c1.962,0.596,2.422,2.681,1.001,4.278
					c-3.197,3.594-3.117,3.859,1.609,5.516c0.296,0.104,0.537,0.36,0.869,0.592c0.791,1.832,0.624,3.237-1.242,4.644
					c-2.381,1.794-2.354,2.892,0.111,3.737c2.692,0.924,2.603,2.588,2.293,4.977c-0.809,0.243-1.824,0.334-2.571,0.829
					c-0.846,0.561-1.451,1.485-2.161,2.251c0.77,0.705,1.477,1.503,2.331,2.086c0.628,0.429,1.448,0.578,2.326,0.905
					c-1.379,10.75-4.919,20.506-10.224,29.616c-0.721,1.237-2.451,2.51-3.807,2.62c-2.564,0.211-4.359,1.345-6.081,2.987
					c-3.009,2.872-5.981,5.788-9.106,8.53c-2.71,2.38-4.535,4.932-2.82,8.526c-24.603,16.766-64.709,17.688-89.162-8.297
					c0.621-1.004,1.282-2.071,2.088-3.373c-0.857-1.199-1.63-2.462-2.577-3.574c-12.19-14.317-17.963-31.002-17.381-49.654
					c0.429-13.757,5.638-25.969,15.019-36.076c4.502-4.85,9.832-8.921,14.661-13.479c2.763-2.606,5.348-5.413,7.877-8.251
					c5.847-6.561,13.278-9.726,21.872-10.645c6.664-0.712,13.245-0.432,19.758,1.173c0.804,0.198,1.62,0.415,2.368,0.758
					c8.126,3.731,16.493,7.035,24.294,11.357C1959.025,514.864,1966.373,523.049,1972.383,532.413z"/>
			</g>
		</g>
	</g>
</g>
</svg>
